<?xml version="1.0" encoding="utf-8"?>
<!-- Generator: Adobe Illustrator 14.0.0, SVG Export Plug-In  -->
<!DOCTYPE svg PUBLIC "-//W3C//DTD SVG 1.1//EN" "http://www.w3.org/Graphics/SVG/1.1/DTD/svg11.dtd" [
	<!ENTITY ns_flows "http://ns.adobe.com/Flows/1.0/">
]>
<svg version="1.1"
	 xmlns="http://www.w3.org/2000/svg" xmlns:xlink="http://www.w3.org/1999/xlink" xmlns:a="http://ns.adobe.com/AdobeSVGViewerExtensions/3.0/"
	 x="0px" y="0px" width="406px" height="406px" viewBox="-5.32 -4.647 406 406" enable-background="new -5.32 -4.647 406 406"
	 xml:space="preserve">
<defs>
</defs>
<path fill="#E8DDD4" d="M67.724,198.132c0,0.701,0,1.399,0.071,2.582c0.076,1.204,0.204,2.891,1.444,4.947
	c1.245,2.038,3.585,4.445,6.332,6.133c2.736,1.706,5.871,2.691,9.007,4.071c3.144,1.381,6.253,3.11,8.394,5.184
	c2.144,2.083,3.336,4.511,3.761,7.295c0.421,2.781,0.102,5.886-1.068,8.205c-1.17,2.348-3.19,3.901-5.428,4.863
	c-2.244,0.96-4.709,1.336-6.798,1.143c-2.121-0.201-3.86-0.942-5.085-1.95c-1.218-0.987-1.891-2.233-2.119-3.044
	c-0.221-0.81,0.028-1.203,0.451-1.163c0.422,0.045,1.046,0.507,2.338,0.812c1.297,0.306,3.244,0.436,4.986-0.22
	c1.742-0.657,3.284-2.1,3.929-4.181c0.652-2.08,0.451-4.775-0.993-6.785c-1.446-2.016-4.109-3.327-7.072-3.528
	c-2.987-0.197-6.301,0.744-8.542,2.783c-2.241,2.056-3.413,5.229-3.438,8.583c-0.024,3.349,1.099,6.875,3.639,9.325
	c2.511,2.453,6.445,3.872,10.406,4.093c3.936,0.22,7.897-0.767,10.909-2.319c3.014-1.553,5.08-3.677,6.67-6.217
	c1.598-2.541,2.716-5.499,2.968-8.449c0.25-2.958-0.399-5.914-0.423-9.13c-0.028-3.218,0.573-6.723,1.914-9.394
	c1.344-2.669,3.461-4.529,6.154-5.297c2.689-0.764,5.926-0.461,8.317,1.182c2.388,1.644,3.907,4.621,4.183,7.881
	c0.301,3.263-0.624,6.81-2.716,10.312c-2.091,3.505-5.379,6.962-10.037,10.947c-4.681,3.984-10.753,8.518-15.889,12.458
	c-5.129,3.939-9.313,7.334-13.345,11.755c-4.034,4.423-7.944,9.899-10.008,14.886c-2.044,4.994-2.243,9.546-1.399,13.072
	c0.872,3.524,2.792,6.044,5.482,7.928c2.691,1.88,6.148,3.126,9.559,3.61c3.416,0.479,6.798,0.15,9.562-0.679
	c2.762-0.835,4.936-2.211,7.598-3.656c2.691-1.448,5.879-2.955,9.389-3.634c3.508-0.701,7.295-0.569,10.108,0.766
	c2.814,1.333,4.632,3.918,5.13,6.63c0.494,2.718-0.297,5.605-1.891,7.774c-1.597,2.188-3.961,3.681-7.149,4.161
	c-3.161,0.48-7.148-0.044-10.605-1.313c-3.442-1.269-6.377-3.306-9.114-4.688c-2.743-1.375-5.285-2.121-7.922-2.363
	c-2.639-0.238-5.405,0-8.09,0.568c-2.715,0.552-5.408,1.404-7.896,3.549c-2.489,2.146-4.805,5.602-5.349,9.573
	c-0.553,3.959,0.644,8.445,2.286,12.212c1.619,3.764,3.661,6.812,6.65,10.159c2.989,3.348,6.897,7.003,10.71,10.158
	c3.812,3.172,7.54,5.843,11.701,8.78c4.135,2.931,8.69,6.129,12.225,9.325c3.541,3.194,6.102,6.396,7.25,9.781
	c1.17,3.38,0.944,6.943-0.724,9.508c-1.67,2.584-4.757,4.177-8.095,4.401c-3.359,0.219-6.946-0.946-9.333-3.312
	c-2.393-2.358-3.542-5.926-3.915-8.824c-0.346-2.861,0.105-5.053,0.25-7.575c0.151-2.511-0.022-5.343-1.071-8.009
	c-1.02-2.669-2.913-5.188-5.426-6.986c-2.516-1.792-5.63-2.91-9.037-2.862c-3.439,0.016-7.174,1.171-9.914,3.195
	c-2.765,1.994-4.53,4.833-4.685,7.703c-0.144,2.869,1.323,5.805,3.439,7.837c2.115,2.035,4.881,3.217,7.644,3.503
	c2.763,0.264,5.53-0.368,7.322-1.795c1.795-1.422,2.612-3.657,2.49-5.579c-0.096-1.953-1.146-3.594-2.767-4.469
	c-1.612-0.853-3.833-0.92-5.574-0.547c-1.72,0.366-2.966,1.184-3.589,1.97c-0.646,0.783-0.668,1.554-0.844,1.933
	c-0.176,0.343-0.474,0.304-0.922-0.094c-0.426-0.366-0.969-1.07-1.27-2.102c-0.304-1.026-0.348-2.411,0.524-3.677
	c0.848-1.269,2.613-2.428,4.706-3.107c2.091-0.703,4.508-0.923,6.646-0.46c2.145,0.46,4.011,1.613,5.457,3.236
	c1.444,1.623,2.489,3.684,2.864,5.893c0.375,2.211,0.125,4.572-0.875,6.503c-0.997,1.927-2.736,3.438-4.928,4.921
	c-2.195,1.489-4.854,2.978-6.697,5.173c-1.843,2.186-2.89,5.077-2.415,7.37c0.471,2.302,2.438,3.971,4.755,4.799
	c2.311,0.836,4.929,0.814,6.921,0.482c1.968-0.331,3.284-0.959,4.234-1.641c0.948-0.678,1.521-1.404,2.115-1.645
	c0.6-0.26,1.249-0.061,2.693,0.507c1.466,0.569,3.734,1.55,6.097,2.148c2.371,0.607,4.809,0.849,7.373,0.581
	c2.591-0.257,5.306-1.021,7.742-2.341c2.44-1.312,4.632-3.165,5.956-5.643c1.344-2.496,1.842-5.626,1.442-8.494
	c-0.401-2.87-1.715-5.475-3.536-8.02c-1.816-2.538-4.157-4.986-7.173-7.707c-3.012-2.712-6.699-5.709-10.406-8.553
	c-3.71-2.853-7.421-5.563-11.282-8.87c-3.888-3.311-7.918-7.223-11.309-10.971c-3.384-3.745-6.098-7.312-7.667-10.595
	c-1.567-3.283-1.967-6.283-1.618-8.578c0.324-2.304,1.393-3.923,3.188-5.234c1.818-1.318,4.382-2.299,7.095-2.299
	c2.715,0,5.606,0.961,7.448,2.651c1.842,1.705,2.616,4.132,3.189,6.674c0.547,2.541,0.893,5.211,0.868,8.648
	c0,3.438-0.374,7.618,0.148,11.076c0.503,3.462,1.874,6.215,4.135,8.346c2.266,2.121,5.451,3.631,8.494,4.484
	c3.033,0.878,5.898,1.095,8.614,0.783c2.713-0.324,5.255-1.184,7.471-2.942c2.215-1.783,4.085-4.433,4.732-7.494
	c0.649-3.045,0.1-6.482-1.592-9.042c-1.699-2.542-4.558-4.208-7.796-4.425c-3.237-0.195-6.823,1.052-8.919,3.132
	c-2.065,2.078-2.608,4.972-1.742,7.096c0.875,2.12,3.19,3.476,5.084,4.051c1.889,0.563,3.364,0.398,4.38,0.062
	c1.025-0.325,1.619-0.789,1.996-0.697c0.371,0.083,0.523,0.743,0,1.725c-0.526,0.987-1.696,2.278-3.758,3.071
	c-2.045,0.786-4.986,1.069-7.825,0.326c-2.833-0.769-5.601-2.584-7.296-4.969c-1.665-2.387-2.265-5.342-1.593-8.122
	c0.698-2.783,2.664-5.413,5.58-7.775c2.912-2.343,6.749-4.422,10.106-6.084c3.364-1.662,6.205-2.959,8.542-4.923
	c2.316-1.972,4.135-4.671,5.184-7.295c1.046-2.629,1.318-5.233,0.896-7.815c-0.453-2.606-1.594-5.212-3.091-7.311
	c-1.491-2.126-3.312-3.748-5.55-5.232c-2.243-1.49-4.858-2.875-7.625-4.29c-2.763-1.427-5.676-2.911-8.01-4.908
	c-2.342-1.99-4.162-4.485-4.885-7.354c-0.72-2.872-0.372-6.111,1.042-8.736c1.423-2.625,3.939-4.596,6.725-5.673
	c2.788-1.071,5.903-1.222,8.096-0.589c2.215,0.638,3.533,2.035,4.207,3.172c0.675,1.142,0.724,1.975,0.572,2.457
	c-0.146,0.456-0.497,0.545-1.016,0.282c-0.529-0.263-1.201-0.854-2.89-0.964c-1.67-0.106-4.361,0.284-6.104,2.279
	c-1.742,1.989-2.518,5.601-1.371,8.187c1.17,2.583,4.285,4.118,7.349,4.512c3.062,0.39,6.075-0.352,8.345-2.059
	c2.26-1.709,3.779-4.382,4.178-7.444c0.399-3.065-0.295-6.548-2.115-9.371c-1.821-2.823-4.735-5.011-8.594-5.779
	c-3.858-0.765-8.642-0.109-12.471,1.334c-3.839,1.445-6.754,3.655-8.696,6.524c-1.943,2.868-2.938,6.35-3.161,8.976
	c-0.226,2.629,0.301,4.357,0.471,6.985c0.175,2.628,0,6.134-0.645,9.237c-0.65,3.088-1.768,5.758-3.611,7.507
	c-1.84,1.754-4.41,2.607-6.872,2.824c-2.439,0.222-4.784-0.17-6.698-1.374c-1.946-1.208-3.462-3.199-4.012-5.718
	c-0.548-2.513-0.1-5.558,1.395-8.843c1.495-3.283,4.031-6.786,7.395-10.599c3.366-3.784,7.547-7.859,13-12.453
	c5.454-4.598,12.202-9.721,17.356-13.992c5.152-4.27,8.744-7.684,11.333-11.206c2.586-3.532,4.184-7.12,4.856-10.71
	c0.667-3.569,0.399-7.113-0.974-10.157c-1.368-3.045-3.861-5.627-6.675-7.203c-2.812-1.598-5.975-2.21-9.334-2.344
	c-3.364-0.128-6.902,0.221-10.113,1.272c-3.24,1.071-6.151,2.843-8.964,4.091c-2.814,1.251-5.504,1.972-8.093,2.215
	c-2.589,0.242-5.031,0-7.071-0.766c-2.045-0.771-3.637-2.081-4.609-3.264c-0.972-1.16-1.319-2.188-1.495-3.044
	c-0.173-0.854-0.173-1.53-0.173-2.212"/>
<path fill="#E8DDD4" d="M67.724,198.718c0-0.702,0-1.401,0.072-2.582c0.076-1.204,0.201-2.892,1.445-4.95
	c1.246-2.036,3.585-4.443,6.33-6.127c2.737-1.711,5.873-2.693,9.007-4.076c3.142-1.378,6.253-3.105,8.395-5.182
	c2.142-2.084,3.335-4.515,3.762-7.295c0.423-2.783,0.099-5.887-1.071-8.209c-1.17-2.345-3.19-3.896-5.428-4.858
	c-2.244-0.961-4.709-1.335-6.798-1.141c-2.117,0.2-3.86,0.941-5.083,1.949c-1.22,0.986-1.892,2.232-2.119,3.043
	c-0.224,0.809,0.026,1.203,0.452,1.163c0.419-0.047,1.043-0.507,2.335-0.813c1.299-0.307,3.244-0.437,4.986,0.22
	c1.743,0.656,3.284,2.101,3.932,4.182c0.648,2.08,0.448,4.773-0.997,6.784c-1.444,2.02-4.11,3.33-7.071,3.527
	c-2.988,0.197-6.301-0.742-8.543-2.783c-2.24-2.054-3.411-5.229-3.436-8.581c-0.025-3.35,1.097-6.872,3.637-9.322
	c2.515-2.454,6.448-3.877,10.408-4.098c3.934-0.218,7.895,0.77,10.908,2.322c3.013,1.553,5.079,3.678,6.671,6.217
	c1.599,2.542,2.713,5.499,2.967,8.451c0.249,2.958-0.4,5.912-0.424,9.128c-0.028,3.218,0.573,6.722,1.914,9.394
	c1.348,2.67,3.462,4.531,6.154,5.298c2.69,0.764,5.926,0.461,8.317-1.182c2.388-1.645,3.91-4.62,4.187-7.883
	c0.297-3.26-0.627-6.81-2.719-10.313c-2.091-3.502-5.377-6.959-10.037-10.946c-4.681-3.981-10.757-8.515-15.889-12.456
	c-5.125-3.939-9.309-7.334-13.345-11.754c-4.034-4.424-7.944-9.898-10.008-14.887c-2.043-4.994-2.24-9.546-1.397-13.074
	c0.874-3.523,2.791-6.04,5.481-7.923c2.69-1.885,6.146-3.128,9.56-3.615c3.413-0.481,6.795-0.151,9.56,0.679
	c2.766,0.835,4.936,2.212,7.598,3.656c2.691,1.447,5.879,2.955,9.389,3.634c3.508,0.701,7.295,0.57,10.108-0.765
	c2.814-1.335,4.633-3.92,5.13-6.631c0.497-2.719-0.297-5.607-1.891-7.774c-1.595-2.189-3.959-3.68-7.149-4.16
	c-3.164-0.484-7.148,0.042-10.605,1.312c-3.439,1.266-6.377,3.304-9.114,4.688c-2.743,1.373-5.282,2.121-7.921,2.363
	c-2.64,0.241-5.406,0-8.091-0.568c-2.711-0.549-5.405-1.405-7.896-3.546c-2.49-2.148-4.805-5.605-5.354-9.574
	c-0.549-3.961,0.649-8.447,2.293-12.212c1.614-3.767,3.658-6.813,6.646-10.162c2.99-3.347,6.897-7.003,10.709-10.158
	c3.81-3.169,7.542-5.844,11.702-8.779c4.135-2.931,8.693-6.131,12.226-9.324c3.54-3.196,6.103-6.396,7.251-9.783
	c1.17-3.379,0.943-6.943-0.725-9.507c-1.668-2.585-4.757-4.176-8.095-4.399c-3.359-0.222-6.946,0.943-9.333,3.313
	c-2.393,2.355-3.542,5.924-3.913,8.821c-0.348,2.86,0.104,5.049,0.251,7.574c0.147,2.511-0.025,5.341-1.075,8.009
	c-1.02,2.668-2.909,5.188-5.427,6.987c-2.515,1.791-5.629,2.91-9.038,2.861c-3.438-0.017-7.172-1.17-9.912-3.197
	c-2.765-1.99-4.53-4.831-4.685-7.7c-0.144-2.87,1.323-5.806,3.439-7.839c2.119-2.035,4.881-3.216,7.645-3.502
	c2.766-0.263,5.529,0.371,7.324,1.796c1.791,1.423,2.613,3.656,2.487,5.577c-0.098,1.954-1.146,3.595-2.763,4.469
	c-1.616,0.854-3.835,0.923-5.578,0.548c-1.716-0.368-2.963-1.184-3.586-1.971c-0.648-0.786-0.672-1.553-0.847-1.93
	c-0.178-0.343-0.472-0.303-0.922,0.091c-0.426,0.37-0.969,1.073-1.267,2.104c-0.304,1.026-0.351,2.409,0.521,3.677
	c0.848,1.268,2.618,2.425,4.706,3.107c2.091,0.701,4.508,0.92,6.649,0.46c2.142-0.46,4.008-1.615,5.455-3.237
	c1.442-1.625,2.49-3.684,2.863-5.891c0.375-2.213,0.126-4.574-0.871-6.505c-1-1.925-2.737-3.44-4.932-4.923
	c-2.19-1.488-4.854-2.976-6.697-5.171c-1.841-2.185-2.89-5.076-2.415-7.371c0.473-2.301,2.438-3.968,4.755-4.798
	c2.314-0.833,4.929-0.813,6.922-0.482c1.966,0.333,3.284,0.961,4.232,1.64c0.948,0.677,1.521,1.406,2.115,1.646
	c0.601,0.26,1.249,0.061,2.693-0.508c1.466-0.57,3.734-1.55,6.097-2.146c2.371-0.61,4.809-0.853,7.375-0.584
	c2.587,0.259,5.304,1.022,7.74,2.343c2.441,1.309,4.632,3.166,5.957,5.641c1.343,2.497,1.844,5.625,1.441,8.495
	c-0.397,2.872-1.714,5.474-3.536,8.019c-1.816,2.536-4.157,4.986-7.173,7.706c-3.009,2.712-6.699,5.711-10.406,8.554
	c-3.71,2.853-7.421,5.567-11.282,8.871c-3.887,3.308-7.919,7.222-11.307,10.971c-3.386,3.744-6.1,7.311-7.669,10.594
	c-1.565,3.281-1.967,6.284-1.618,8.581c0.327,2.302,1.395,3.923,3.188,5.233c1.818,1.314,4.382,2.295,7.095,2.295
	c2.716,0,5.606-0.958,7.448-2.647c1.842-1.706,2.616-4.137,3.187-6.677c0.552-2.541,0.899-5.21,0.871-8.647
	c0-3.437-0.371-7.619,0.151-11.076c0.5-3.464,1.87-6.215,4.132-8.342c2.264-2.125,5.451-3.635,8.494-4.485
	c3.036-0.879,5.9-1.098,8.615-0.787c2.714,0.325,5.254,1.182,7.469,2.945c2.216,1.782,4.085,4.43,4.732,7.49
	c0.649,3.047,0.1,6.483-1.592,9.041c-1.696,2.546-4.558,4.211-7.796,4.428c-3.237,0.194-6.823-1.051-8.916-3.133
	c-2.064-2.08-2.611-4.972-1.744-7.097c0.874-2.119,3.189-3.476,5.083-4.05c1.889-0.562,3.364-0.396,4.381-0.062
	c1.024,0.331,1.621,0.791,1.995,0.699c0.371-0.084,0.523-0.745,0-1.726c-0.526-0.986-1.693-2.276-3.758-3.071
	c-2.043-0.787-4.986-1.071-7.824-0.325c-2.834,0.768-5.603,2.584-7.294,4.965c-1.668,2.39-2.265,5.344-1.592,8.126
	c0.694,2.782,2.663,5.41,5.576,7.772c2.912,2.344,6.749,4.423,10.108,6.086c3.364,1.663,6.2,2.958,8.539,4.923
	c2.317,1.972,4.136,4.667,5.184,7.295c1.047,2.628,1.318,5.231,0.896,7.814c-0.45,2.605-1.594,5.213-3.091,7.312
	c-1.491,2.124-3.312,3.746-5.55,5.233c-2.241,1.486-4.856,2.872-7.623,4.29c-2.763,1.423-5.675,2.911-8.013,4.906
	c-2.342,1.99-4.162,4.486-4.885,7.355c-0.72,2.867-0.372,6.11,1.045,8.738c1.422,2.625,3.936,4.592,6.723,5.668
	c2.791,1.076,5.905,1.225,8.095,0.59c2.215-0.637,3.534-2.035,4.207-3.173c0.672-1.14,0.724-1.971,0.574-2.455
	c-0.147-0.455-0.498-0.544-1.021-0.28c-0.522,0.262-1.195,0.854-2.889,0.962c-1.668,0.108-4.358-0.283-6.101-2.276
	c-1.742-1.993-2.518-5.603-1.368-8.19c1.17-2.583,4.282-4.115,7.346-4.511c3.063-0.391,6.075,0.353,8.345,2.059
	c2.262,1.708,3.781,4.381,4.178,7.444c0.4,3.067-0.297,6.547-2.115,9.372c-1.819,2.823-4.735,5.011-8.592,5.779
	c-3.86,0.766-8.64,0.11-12.473-1.333c-3.839-1.446-6.752-3.656-8.696-6.526c-1.94-2.867-2.938-6.348-3.161-8.979
	c-0.225-2.627,0.301-4.354,0.471-6.98c0.175-2.632,0-6.134-0.645-9.239c-0.65-3.089-1.768-5.759-3.609-7.511
	c-1.843-1.75-4.412-2.603-6.875-2.82c-2.439-0.221-4.784,0.172-6.698,1.376c-1.943,1.206-3.463,3.196-4.01,5.715
	c-0.549,2.514-0.099,5.559,1.395,8.842c1.494,3.286,4.034,6.787,7.394,10.597c3.362,3.788,7.547,7.862,13,12.459
	c5.455,4.596,12.206,9.72,17.358,13.99c5.153,4.269,8.74,7.685,11.332,11.204c2.586,3.53,4.184,7.121,4.856,10.709
	c0.67,3.569,0.396,7.115-0.974,10.16c-1.367,3.042-3.858,5.627-6.672,7.199c-2.814,1.599-5.978,2.211-9.337,2.345
	c-3.364,0.129-6.902-0.221-10.115-1.27c-3.234-1.075-6.147-2.845-8.962-4.096c-2.814-1.249-5.501-1.971-8.09-2.211
	c-2.591-0.241-5.029,0-7.073,0.767c-2.043,0.767-3.638,2.078-4.608,3.263c-0.97,1.16-1.318,2.19-1.495,3.042
	c-0.174,0.854-0.174,1.531-0.174,2.213"/>
<path fill="#E8DDD4" d="M63.566,198.132c0,0.701,0,1.399-0.072,2.582c-0.075,1.204-0.204,2.891-1.443,4.947
	c-1.245,2.038-3.586,4.445-6.333,6.133c-2.736,1.706-5.871,2.691-9.007,4.071c-3.144,1.381-6.252,3.11-8.394,5.184
	c-2.143,2.083-3.336,4.511-3.76,7.295c-0.422,2.781-0.102,5.886,1.068,8.205c1.169,2.348,3.189,3.901,5.428,4.863
	c2.244,0.96,4.709,1.336,6.798,1.143c2.121-0.201,3.86-0.942,5.084-1.95c1.218-0.987,1.891-2.233,2.119-3.044
	c0.222-0.81-0.028-1.203-0.451-1.163c-0.423,0.045-1.046,0.507-2.339,0.812c-1.296,0.306-3.244,0.436-4.986-0.22
	c-1.743-0.657-3.285-2.1-3.929-4.181c-0.652-2.08-0.451-4.775,0.993-6.785c1.446-2.016,4.109-3.327,7.073-3.528
	c2.987-0.197,6.3,0.744,8.542,2.783c2.241,2.056,3.413,5.229,3.438,8.583c0.024,3.349-1.099,6.875-3.639,9.325
	c-2.511,2.453-6.444,3.872-10.406,4.093c-3.936,0.22-7.897-0.767-10.908-2.319c-3.015-1.553-5.081-3.677-6.67-6.217
	c-1.598-2.541-2.716-5.499-2.968-8.449c-0.25-2.958,0.399-5.914,0.422-9.13c0.028-3.218-0.573-6.723-1.914-9.394
	c-1.344-2.669-3.462-4.529-6.154-5.297c-2.689-0.764-5.926-0.461-8.317,1.182c-2.388,1.644-3.907,4.621-4.183,7.881
	c-0.301,3.263,0.624,6.81,2.716,10.312c2.091,3.505,5.379,6.962,10.036,10.947c4.682,3.984,10.753,8.518,15.889,12.458
	c5.129,3.939,9.313,7.334,13.346,11.755c4.033,4.423,7.943,9.899,10.007,14.886c2.044,4.994,2.243,9.546,1.4,13.072
	c-0.872,3.524-2.792,6.044-5.483,7.928c-2.691,1.88-6.147,3.126-9.559,3.61c-3.417,0.479-6.798,0.15-9.563-0.679
	c-2.762-0.835-4.936-2.211-7.597-3.656c-2.691-1.448-5.879-2.955-9.389-3.634c-3.509-0.701-7.295-0.569-10.108,0.766
	c-2.814,1.333-4.632,3.918-5.131,6.63c-0.494,2.718,0.298,5.605,1.891,7.774c1.596,2.188,3.961,3.681,7.149,4.161
	c3.161,0.48,7.148-0.044,10.606-1.313c3.442-1.269,6.376-3.306,9.114-4.688c2.743-1.375,5.285-2.121,7.922-2.363
	c2.639-0.238,5.404,0,8.09,0.568c2.715,0.552,5.407,1.404,7.896,3.549c2.489,2.146,4.805,5.602,5.349,9.573
	c0.552,3.959-0.645,8.445-2.286,12.212c-1.618,3.764-3.66,6.812-6.65,10.159c-2.988,3.348-6.897,7.003-10.71,10.158
	c-3.812,3.172-7.54,5.843-11.701,8.78c-4.135,2.931-8.69,6.129-12.225,9.325c-3.541,3.194-6.102,6.396-7.25,9.781
	c-1.17,3.38-0.944,6.943,0.723,9.508c1.67,2.584,4.757,4.177,8.095,4.401c3.36,0.219,6.946-0.946,9.333-3.312
	c2.393-2.358,3.542-5.926,3.915-8.824c0.346-2.861-0.105-5.053-0.25-7.575c-0.151-2.511,0.022-5.343,1.071-8.009
	c1.02-2.669,2.913-5.188,5.426-6.986c2.516-1.792,5.63-2.91,9.038-2.862c3.439,0.016,7.173,1.171,9.914,3.195
	c2.765,1.994,4.53,4.833,4.685,7.703c0.144,2.869-1.323,5.805-3.439,7.837c-2.116,2.035-4.881,3.217-7.645,3.503
	c-2.763,0.264-5.53-0.368-7.322-1.795c-1.795-1.422-2.612-3.657-2.49-5.579c0.096-1.953,1.147-3.594,2.767-4.469
	c1.612-0.853,3.833-0.92,5.574-0.547c1.72,0.366,2.966,1.184,3.589,1.97c0.646,0.783,0.669,1.554,0.844,1.933
	c0.176,0.343,0.474,0.304,0.922-0.094c0.426-0.366,0.969-1.07,1.271-2.102c0.304-1.026,0.348-2.411-0.524-3.677
	c-0.848-1.269-2.613-2.428-4.706-3.107c-2.091-0.703-4.507-0.923-6.646-0.46c-2.145,0.46-4.012,1.613-5.457,3.236
	c-1.443,1.623-2.488,3.684-2.864,5.893c-0.375,2.211-0.125,4.572,0.875,6.503c0.997,1.927,2.736,3.438,4.928,4.921
	c2.195,1.489,4.854,2.978,6.698,5.173c1.843,2.186,2.889,5.077,2.415,7.37c-0.471,2.302-2.438,3.971-4.755,4.799
	c-2.311,0.836-4.929,0.814-6.921,0.482c-1.968-0.331-3.285-0.959-4.234-1.641c-0.947-0.678-1.521-1.404-2.114-1.645
	c-0.6-0.26-1.249-0.061-2.693,0.507c-1.467,0.569-3.734,1.55-6.098,2.148c-2.37,0.607-4.809,0.849-7.372,0.581
	c-2.591-0.257-5.306-1.021-7.742-2.341c-2.44-1.312-4.632-3.165-5.956-5.643c-1.344-2.496-1.842-5.626-1.443-8.494
	c0.401-2.87,1.715-5.475,3.536-8.02c1.816-2.538,4.157-4.986,7.174-7.707c3.012-2.712,6.699-5.709,10.405-8.553
	c3.71-2.853,7.421-5.563,11.282-8.87c3.888-3.311,7.918-7.223,11.309-10.971c3.383-3.745,6.097-7.312,7.667-10.595
	c1.567-3.283,1.967-6.283,1.618-8.578c-0.324-2.304-1.393-3.923-3.188-5.234c-1.818-1.318-4.382-2.299-7.095-2.299
	c-2.715,0-5.606,0.961-7.449,2.651c-1.842,1.705-2.616,4.132-3.189,6.674c-0.547,2.541-0.892,5.211-0.868,8.648
	c0,3.438,0.374,7.618-0.148,11.076c-0.503,3.462-1.874,6.215-4.135,8.346c-2.266,2.121-5.452,3.631-8.494,4.484
	c-3.034,0.878-5.898,1.095-8.614,0.783c-2.713-0.324-5.256-1.184-7.471-2.942c-2.215-1.783-4.085-4.433-4.732-7.494
	c-0.649-3.045-0.1-6.482,1.592-9.042c1.698-2.542,4.558-4.208,7.796-4.425c3.236-0.195,6.823,1.052,8.918,3.132
	c2.065,2.078,2.608,4.972,1.742,7.096c-0.875,2.12-3.189,3.476-5.084,4.051c-1.888,0.563-3.364,0.398-4.38,0.062
	c-1.025-0.325-1.619-0.789-1.996-0.697c-0.372,0.083-0.523,0.743,0,1.725c0.525,0.987,1.696,2.278,3.758,3.071
	c2.045,0.786,4.986,1.069,7.825,0.326c2.833-0.769,5.602-2.584,7.296-4.969c1.664-2.387,2.265-5.342,1.593-8.122
	c-0.699-2.783-2.664-5.413-5.581-7.775c-2.911-2.343-6.748-4.422-10.106-6.084c-3.364-1.662-6.205-2.959-8.541-4.923
	c-2.317-1.972-4.135-4.671-5.184-7.295c-1.047-2.629-1.318-5.233-0.896-7.815c0.452-2.606,1.594-5.212,3.091-7.311
	c1.491-2.126,3.313-3.748,5.55-5.232c2.243-1.49,4.858-2.875,7.626-4.29c2.763-1.427,5.676-2.911,8.01-4.908
	c2.343-1.99,4.162-4.485,4.886-7.354c0.72-2.872,0.372-6.111-1.042-8.736c-1.423-2.625-3.939-4.596-6.726-5.673
	c-2.787-1.071-5.903-1.222-8.096-0.589c-2.215,0.638-3.533,2.035-4.207,3.172c-0.675,1.142-0.723,1.975-0.572,2.457
	c0.146,0.456,0.497,0.545,1.016,0.282c0.529-0.263,1.201-0.854,2.89-0.964c1.67-0.106,4.361,0.284,6.104,2.279
	c1.742,1.989,2.518,5.601,1.371,8.187c-1.17,2.583-4.285,4.118-7.349,4.512c-3.062,0.39-6.075-0.352-8.345-2.059
	c-2.261-1.709-3.779-4.382-4.179-7.444c-0.398-3.065,0.295-6.548,2.115-9.371c1.82-2.823,4.735-5.011,8.594-5.779
	c3.858-0.765,8.642-0.109,12.471,1.334c3.839,1.445,6.754,3.655,8.696,6.524c1.943,2.868,2.938,6.35,3.161,8.976
	c0.226,2.629-0.301,4.357-0.471,6.985c-0.176,2.628,0,6.134,0.644,9.237c0.65,3.088,1.768,5.758,3.611,7.507
	c1.84,1.754,4.41,2.607,6.873,2.824c2.439,0.222,4.783-0.17,6.697-1.374c1.946-1.208,3.462-3.199,4.012-5.718
	c0.547-2.513,0.099-5.558-1.396-8.843c-1.495-3.283-4.031-6.786-7.395-10.599c-3.365-3.784-7.547-7.859-13-12.453
	c-5.453-4.598-12.202-9.721-17.356-13.992c-5.153-4.27-8.745-7.684-11.333-11.206c-2.586-3.532-4.184-7.12-4.856-10.71
	c-0.667-3.569-0.398-7.113,0.974-10.157c1.368-3.045,3.861-5.627,6.675-7.203c2.813-1.598,5.975-2.21,9.334-2.344
	c3.364-0.128,6.903,0.221,10.113,1.272c3.241,1.071,6.151,2.843,8.964,4.091c2.814,1.251,5.504,1.972,8.093,2.215
	c2.588,0.242,5.03,0,7.071-0.766c2.045-0.771,3.637-2.081,4.609-3.264c0.973-1.16,1.32-2.188,1.495-3.044
	c0.173-0.854,0.173-1.53,0.173-2.212"/>
<path fill="#E8DDD4" d="M63.566,198.718c0-0.702,0-1.401-0.073-2.582c-0.075-1.204-0.201-2.892-1.445-4.95
	c-1.247-2.036-3.585-4.443-6.33-6.127c-2.737-1.711-5.873-2.693-9.007-4.076c-3.142-1.378-6.252-3.105-8.395-5.182
	c-2.142-2.084-3.336-4.515-3.763-7.295c-0.422-2.783-0.098-5.887,1.071-8.209c1.169-2.345,3.189-3.896,5.428-4.858
	c2.244-0.961,4.709-1.335,6.798-1.141c2.116,0.2,3.86,0.941,5.082,1.949c1.221,0.986,1.893,2.232,2.119,3.043
	c0.224,0.809-0.026,1.203-0.452,1.163c-0.419-0.047-1.043-0.507-2.335-0.813c-1.299-0.307-3.244-0.437-4.986,0.22
	c-1.744,0.656-3.285,2.101-3.933,4.182c-0.648,2.08-0.448,4.773,0.997,6.784c1.445,2.02,4.111,3.33,7.071,3.527
	c2.989,0.197,6.301-0.742,8.543-2.783c2.24-2.054,3.411-5.229,3.436-8.581c0.026-3.35-1.096-6.872-3.637-9.322
	c-2.515-2.454-6.448-3.877-10.408-4.098c-3.934-0.218-7.895,0.77-10.908,2.322c-3.013,1.553-5.079,3.678-6.672,6.217
	c-1.599,2.542-2.713,5.499-2.967,8.451c-0.249,2.958,0.4,5.912,0.424,9.128c0.028,3.218-0.573,6.722-1.914,9.394
	c-1.348,2.67-3.463,4.531-6.154,5.298c-2.69,0.764-5.926,0.461-8.317-1.182c-2.388-1.645-3.91-4.62-4.187-7.883
	c-0.297-3.26,0.627-6.81,2.72-10.313c2.091-3.502,5.376-6.959,10.036-10.946c4.682-3.981,10.757-8.515,15.889-12.456
	c5.125-3.939,9.309-7.334,13.346-11.754c4.033-4.424,7.943-9.898,10.007-14.887c2.043-4.994,2.24-9.546,1.397-13.074
	c-0.874-3.523-2.791-6.04-5.481-7.923c-2.69-1.885-6.146-3.128-9.56-3.615c-3.413-0.481-6.795-0.151-9.561,0.679
	c-2.766,0.835-4.936,2.212-7.597,3.656c-2.691,1.447-5.879,2.955-9.389,3.634c-3.509,0.701-7.295,0.57-10.108-0.765
	c-2.814-1.335-4.633-3.92-5.131-6.631c-0.497-2.719,0.298-5.607,1.891-7.774c1.595-2.189,3.959-3.68,7.149-4.16
	c3.164-0.484,7.148,0.042,10.606,1.312c3.439,1.266,6.376,3.304,9.114,4.688c2.743,1.373,5.282,2.121,7.921,2.363
	c2.64,0.241,5.406,0,8.092-0.568c2.71-0.549,5.405-1.405,7.896-3.546c2.49-2.148,4.805-5.605,5.353-9.574
	c0.549-3.961-0.649-8.447-2.293-12.212c-1.614-3.767-3.659-6.813-6.646-10.162c-2.989-3.347-6.897-7.003-10.709-10.158
	c-3.809-3.169-7.542-5.844-11.702-8.779c-4.135-2.931-8.693-6.131-12.226-9.324c-3.54-3.196-6.103-6.396-7.25-9.783
	c-1.171-3.379-0.943-6.943,0.725-9.507c1.668-2.585,4.757-4.176,8.095-4.399c3.36-0.222,6.946,0.943,9.333,3.313
	c2.393,2.355,3.542,5.924,3.913,8.821c0.348,2.86-0.103,5.049-0.251,7.574c-0.148,2.511,0.025,5.341,1.074,8.009
	c1.02,2.668,2.91,5.188,5.427,6.987c2.515,1.791,5.629,2.91,9.038,2.861c3.438-0.017,7.172-1.17,9.912-3.197
	c2.765-1.99,4.53-4.831,4.685-7.7c0.144-2.87-1.323-5.806-3.439-7.839c-2.119-2.035-4.881-3.216-7.646-3.502
	c-2.766-0.263-5.529,0.371-7.324,1.796c-1.791,1.423-2.613,3.656-2.487,5.577c0.098,1.954,1.147,3.595,2.763,4.469
	c1.616,0.854,3.835,0.923,5.578,0.548c1.716-0.368,2.963-1.184,3.587-1.971c0.648-0.786,0.672-1.553,0.846-1.93
	c0.178-0.343,0.472-0.303,0.922,0.091c0.426,0.37,0.969,1.073,1.267,2.104c0.304,1.026,0.352,2.409-0.521,3.677
	c-0.848,1.268-2.617,2.425-4.706,3.107c-2.091,0.701-4.507,0.92-6.648,0.46c-2.142-0.46-4.009-1.615-5.456-3.237
	c-1.442-1.625-2.49-3.684-2.863-5.891c-0.375-2.213-0.125-4.574,0.871-6.505c1-1.925,2.737-3.44,4.932-4.923
	c2.191-1.488,4.854-2.976,6.698-5.171c1.841-2.185,2.889-5.076,2.415-7.371c-0.473-2.301-2.438-3.968-4.755-4.798
	c-2.315-0.833-4.929-0.813-6.922-0.482c-1.967,0.333-3.284,0.961-4.233,1.64C36.298,2.53,35.725,3.259,35.131,3.5
	c-0.602,0.26-1.249,0.061-2.693-0.508c-1.467-0.57-3.734-1.55-6.098-2.146c-2.37-0.61-4.809-0.853-7.375-0.584
	c-2.588,0.259-5.304,1.022-7.74,2.343C8.785,3.913,6.594,5.77,5.27,8.245c-1.343,2.497-1.844,5.625-1.442,8.495
	c0.397,2.872,1.714,5.474,3.536,8.019c1.816,2.536,4.157,4.986,7.174,7.706c3.009,2.712,6.699,5.711,10.405,8.554
	c3.71,2.853,7.421,5.567,11.282,8.871c3.887,3.308,7.919,7.222,11.307,10.971c3.386,3.744,6.1,7.311,7.669,10.594
	c1.566,3.281,1.967,6.284,1.618,8.581c-0.327,2.302-1.395,3.923-3.188,5.233c-1.818,1.314-4.382,2.295-7.095,2.295
	c-2.716,0-5.606-0.958-7.449-2.647c-1.842-1.706-2.616-4.137-3.187-6.677c-0.552-2.541-0.899-5.21-0.871-8.647
	c0-3.437,0.371-7.619-0.152-11.076c-0.5-3.464-1.87-6.215-4.131-8.342c-2.265-2.125-5.452-3.635-8.494-4.485
	c-3.037-0.879-5.9-1.098-8.615-0.787c-2.714,0.325-5.254,1.182-7.469,2.945c-2.216,1.782-4.085,4.43-4.732,7.49
	c-0.649,3.047-0.1,6.483,1.592,9.041c1.696,2.546,4.558,4.211,7.796,4.428c3.236,0.194,6.823-1.051,8.916-3.133
	c2.064-2.08,2.61-4.972,1.743-7.097c-0.874-2.119-3.188-3.476-5.083-4.05c-1.888-0.562-3.364-0.396-4.381-0.062
	c-1.024,0.331-1.621,0.791-1.995,0.699c-0.372-0.084-0.523-0.745,0-1.726c0.525-0.986,1.692-2.276,3.758-3.071
	c2.043-0.787,4.986-1.071,7.823-0.325c2.835,0.768,5.603,2.584,7.294,4.965c1.668,2.39,2.265,5.344,1.592,8.126
	c-0.694,2.782-2.663,5.41-5.576,7.772c-2.911,2.344-6.748,4.423-10.108,6.086c-3.364,1.663-6.2,2.958-8.539,4.923
	c-2.318,1.972-4.137,4.667-5.184,7.295c-1.048,2.628-1.318,5.231-0.896,7.814c0.45,2.605,1.594,5.213,3.091,7.312
	c1.491,2.124,3.313,3.746,5.55,5.233c2.241,1.486,4.856,2.872,7.623,4.29c2.763,1.423,5.675,2.911,8.013,4.906
	c2.343,1.99,4.162,4.486,4.886,7.355c0.72,2.867,0.372,6.11-1.046,8.738c-1.421,2.625-3.936,4.592-6.723,5.668
	c-2.791,1.076-5.904,1.225-8.095,0.59c-2.215-0.637-3.534-2.035-4.207-3.173c-0.672-1.14-0.723-1.971-0.574-2.455
	c0.147-0.455,0.498-0.544,1.021-0.28c0.523,0.262,1.196,0.854,2.889,0.962c1.667,0.108,4.358-0.283,6.101-2.276
	c1.742-1.993,2.518-5.603,1.368-8.19c-1.17-2.583-4.282-4.115-7.346-4.511c-3.063-0.391-6.075,0.353-8.345,2.059
	c-2.262,1.708-3.781,4.381-4.179,7.444c-0.4,3.067,0.297,6.547,2.115,9.372c1.819,2.823,4.735,5.011,8.592,5.779
	c3.86,0.766,8.64,0.11,12.473-1.333c3.839-1.446,6.752-3.656,8.696-6.526c1.94-2.867,2.938-6.348,3.161-8.979
	c0.225-2.627-0.301-4.354-0.471-6.98c-0.176-2.632,0-6.134,0.644-9.239c0.65-3.089,1.768-5.759,3.609-7.511
	c1.843-1.75,4.412-2.603,6.875-2.82c2.439-0.221,4.783,0.172,6.697,1.376c1.943,1.206,3.464,3.196,4.01,5.715
	c0.549,2.514,0.099,5.559-1.395,8.842c-1.494,3.286-4.034,6.787-7.394,10.597c-3.362,3.788-7.547,7.862-13,12.459
	c-5.454,4.596-12.205,9.72-17.358,13.99c-5.153,4.269-8.74,7.685-11.332,11.204c-2.586,3.53-4.184,7.121-4.856,10.709
	c-0.669,3.569-0.396,7.115,0.974,10.16c1.367,3.042,3.858,5.627,6.673,7.199c2.814,1.599,5.978,2.211,9.337,2.345
	c3.364,0.129,6.903-0.221,10.115-1.27c3.234-1.075,6.147-2.845,8.962-4.096c2.814-1.249,5.502-1.971,8.09-2.211
	c2.591-0.241,5.03,0,7.073,0.767c2.043,0.767,3.638,2.078,4.609,3.263c0.97,1.16,1.318,2.19,1.495,3.042
	c0.175,0.854,0.175,1.531,0.175,2.213"/>
<path fill="#E8DDD4" d="M200.504,198.132c0,0.701,0,1.399,0.071,2.582c0.075,1.204,0.204,2.891,1.443,4.947
	c1.246,2.038,3.586,4.445,6.332,6.133c2.736,1.706,5.871,2.691,9.008,4.071c3.144,1.381,6.253,3.11,8.394,5.184
	c2.144,2.083,3.336,4.511,3.761,7.295c0.422,2.781,0.102,5.886-1.068,8.205c-1.17,2.348-3.189,3.901-5.428,4.863
	c-2.244,0.96-4.709,1.336-6.798,1.143c-2.12-0.201-3.859-0.942-5.084-1.95c-1.219-0.987-1.892-2.233-2.119-3.044
	c-0.222-0.81,0.027-1.203,0.45-1.163c0.423,0.045,1.048,0.507,2.339,0.812c1.297,0.306,3.244,0.436,4.986-0.22
	c1.742-0.657,3.285-2.1,3.929-4.181c0.652-2.08,0.451-4.775-0.992-6.785c-1.446-2.016-4.11-3.327-7.073-3.528
	c-2.986-0.197-6.301,0.744-8.541,2.783c-2.241,2.056-3.414,5.229-3.438,8.583c-0.024,3.349,1.099,6.875,3.64,9.325
	c2.51,2.453,6.444,3.872,10.405,4.093c3.937,0.22,7.896-0.767,10.909-2.319c3.014-1.553,5.08-3.677,6.67-6.217
	c1.598-2.541,2.716-5.499,2.968-8.449c0.25-2.958-0.398-5.914-0.423-9.13c-0.028-3.218,0.573-6.723,1.914-9.394
	c1.345-2.669,3.462-4.529,6.154-5.297c2.689-0.764,5.926-0.461,8.317,1.182c2.388,1.644,3.907,4.621,4.183,7.881
	c0.302,3.263-0.623,6.81-2.716,10.312c-2.091,3.505-5.38,6.962-10.036,10.947c-4.682,3.984-10.753,8.518-15.888,12.458
	c-5.13,3.939-9.314,7.334-13.347,11.755c-4.033,4.423-7.943,9.899-10.007,14.886c-2.045,4.994-2.243,9.546-1.4,13.072
	c0.872,3.524,2.792,6.044,5.483,7.928c2.691,1.88,6.147,3.126,9.559,3.61c3.416,0.479,6.798,0.15,9.562-0.679
	c2.762-0.835,4.936-2.211,7.598-3.656c2.691-1.448,5.879-2.955,9.388-3.634c3.51-0.701,7.296-0.569,10.109,0.766
	c2.813,1.333,4.632,3.918,5.13,6.63c0.495,2.718-0.298,5.605-1.891,7.774c-1.597,2.188-3.961,3.681-7.149,4.161
	c-3.16,0.48-7.147-0.044-10.605-1.313c-3.442-1.269-6.377-3.306-9.114-4.688c-2.742-1.375-5.284-2.121-7.922-2.363
	c-2.639-0.238-5.404,0-8.09,0.568c-2.715,0.552-5.407,1.404-7.896,3.549c-2.489,2.146-4.806,5.602-5.35,9.573
	c-0.552,3.959,0.645,8.445,2.286,12.212c1.618,3.764,3.66,6.812,6.65,10.159c2.988,3.348,6.896,7.003,10.71,10.158
	c3.812,3.172,7.54,5.843,11.701,8.78c4.135,2.931,8.69,6.129,12.225,9.325c3.54,3.194,6.101,6.396,7.25,9.781
	c1.17,3.38,0.944,6.943-0.724,9.508c-1.67,2.584-4.758,4.177-8.095,4.401c-3.36,0.219-6.946-0.946-9.333-3.312
	c-2.394-2.358-3.542-5.926-3.915-8.824c-0.346-2.861,0.105-5.053,0.249-7.575c0.151-2.511-0.021-5.343-1.07-8.009
	c-1.02-2.669-2.913-5.188-5.426-6.986c-2.517-1.792-5.63-2.91-9.037-2.862c-3.44,0.016-7.174,1.171-9.914,3.195
	c-2.765,1.994-4.53,4.833-4.685,7.703c-0.144,2.869,1.323,5.805,3.438,7.837c2.116,2.035,4.881,3.217,7.645,3.503
	c2.763,0.264,5.53-0.368,7.321-1.795c1.795-1.422,2.612-3.657,2.49-5.579c-0.096-1.953-1.146-3.594-2.767-4.469
	c-1.612-0.853-3.833-0.92-5.573-0.547c-1.721,0.366-2.968,1.184-3.589,1.97c-0.646,0.783-0.669,1.554-0.845,1.933
	c-0.176,0.343-0.474,0.304-0.922-0.094c-0.426-0.366-0.969-1.07-1.271-2.102c-0.304-1.026-0.348-2.411,0.524-3.677
	c0.848-1.269,2.613-2.428,4.705-3.107c2.093-0.703,4.508-0.923,6.646-0.46c2.145,0.46,4.011,1.613,5.456,3.236
	c1.443,1.623,2.489,3.684,2.865,5.893c0.375,2.211,0.124,4.572-0.875,6.503c-0.997,1.927-2.736,3.438-4.929,4.921
	c-2.194,1.489-4.854,2.978-6.697,5.173c-1.843,2.186-2.889,5.077-2.414,7.37c0.471,2.302,2.438,3.971,4.756,4.799
	c2.311,0.836,4.928,0.814,6.92,0.482c1.969-0.331,3.285-0.959,4.234-1.641c0.947-0.678,1.521-1.404,2.114-1.645
	c0.601-0.26,1.249-0.061,2.693,0.507c1.467,0.569,3.734,1.55,6.098,2.148c2.37,0.607,4.809,0.849,7.372,0.581
	c2.591-0.257,5.306-1.021,7.742-2.341c2.44-1.312,4.632-3.165,5.955-5.643c1.344-2.496,1.842-5.626,1.443-8.494
	c-0.401-2.87-1.716-5.475-3.536-8.02c-1.816-2.538-4.157-4.986-7.174-7.707c-3.012-2.712-6.698-5.709-10.406-8.553
	c-3.709-2.853-7.42-5.563-11.281-8.87c-3.888-3.311-7.917-7.223-11.309-10.971c-3.383-3.745-6.097-7.312-7.666-10.595
	c-1.567-3.283-1.968-6.283-1.619-8.578c0.324-2.304,1.394-3.923,3.188-5.234c1.818-1.318,4.382-2.299,7.095-2.299
	c2.715,0,5.605,0.961,7.448,2.651c1.842,1.705,2.615,4.132,3.189,6.674c0.546,2.541,0.893,5.211,0.868,8.648
	c0,3.438-0.374,7.618,0.147,11.076c0.504,3.462,1.874,6.215,4.136,8.346c2.266,2.121,5.452,3.631,8.493,4.484
	c3.034,0.878,5.898,1.095,8.614,0.783c2.713-0.324,5.256-1.184,7.47-2.942c2.216-1.783,4.086-4.433,4.732-7.494
	c0.649-3.045,0.101-6.482-1.592-9.042c-1.698-2.542-4.558-4.208-7.796-4.425c-3.237-0.195-6.822,1.052-8.919,3.132
	c-2.065,2.078-2.608,4.972-1.741,7.096c0.875,2.12,3.189,3.476,5.083,4.051c1.889,0.563,3.364,0.398,4.38,0.062
	c1.025-0.325,1.62-0.789,1.996-0.697c0.371,0.083,0.523,0.743,0,1.725c-0.525,0.987-1.695,2.278-3.758,3.071
	c-2.045,0.786-4.986,1.069-7.825,0.326c-2.833-0.769-5.602-2.584-7.296-4.969c-1.664-2.387-2.265-5.342-1.593-8.122
	c0.698-2.783,2.663-5.413,5.581-7.775c2.91-2.343,6.747-4.422,10.105-6.084c3.363-1.662,6.205-2.959,8.541-4.923
	c2.316-1.972,4.135-4.671,5.184-7.295c1.046-2.629,1.318-5.233,0.896-7.815c-0.452-2.606-1.594-5.212-3.092-7.311
	c-1.49-2.126-3.312-3.748-5.549-5.232c-2.243-1.49-4.859-2.875-7.626-4.29c-2.763-1.427-5.676-2.911-8.01-4.908
	c-2.344-1.99-4.162-4.485-4.886-7.354c-0.72-2.872-0.372-6.111,1.042-8.736c1.424-2.625,3.939-4.596,6.726-5.673
	c2.787-1.071,5.903-1.222,8.097-0.589c2.215,0.638,3.532,2.035,4.207,3.172c0.675,1.142,0.723,1.975,0.571,2.457
	c-0.145,0.456-0.496,0.545-1.015,0.282c-0.529-0.263-1.202-0.854-2.891-0.964c-1.671-0.106-4.36,0.284-6.104,2.279
	c-1.743,1.989-2.518,5.601-1.371,8.187c1.17,2.583,4.285,4.118,7.349,4.512c3.062,0.39,6.075-0.352,8.345-2.059
	c2.261-1.709,3.779-4.382,4.18-7.444c0.397-3.065-0.297-6.548-2.116-9.371c-1.82-2.823-4.735-5.011-8.594-5.779
	c-3.858-0.765-8.642-0.109-12.471,1.334c-3.84,1.445-6.754,3.655-8.695,6.524c-1.943,2.868-2.938,6.35-3.161,8.976
	c-0.226,2.629,0.301,4.357,0.472,6.985c0.176,2.628,0,6.134-0.646,9.237c-0.649,3.088-1.768,5.758-3.61,7.507
	c-1.841,1.754-4.411,2.607-6.873,2.824c-2.438,0.222-4.783-0.17-6.697-1.374c-1.946-1.208-3.462-3.199-4.012-5.718
	c-0.548-2.513-0.1-5.558,1.396-8.843c1.494-3.283,4.03-6.786,7.395-10.599c3.365-3.784,7.548-7.859,13-12.453
	c5.453-4.598,12.202-9.721,17.355-13.992c5.152-4.27,8.744-7.684,11.334-11.206c2.586-3.532,4.184-7.12,4.855-10.71
	c0.668-3.569,0.399-7.113-0.973-10.157c-1.368-3.045-3.86-5.627-6.676-7.203c-2.812-1.598-5.975-2.21-9.335-2.344
	c-3.363-0.128-6.902,0.221-10.112,1.272c-3.24,1.071-6.15,2.843-8.964,4.091c-2.814,1.251-5.505,1.972-8.093,2.215
	c-2.59,0.242-5.031,0-7.071-0.766c-2.046-0.771-3.638-2.081-4.609-3.264c-0.973-1.16-1.32-2.188-1.494-3.044
	c-0.174-0.854-0.174-1.53-0.174-2.212"/>
<path fill="#E8DDD4" d="M200.504,198.718c0-0.702,0-1.401,0.072-2.582c0.075-1.204,0.201-2.892,1.444-4.95
	c1.247-2.036,3.586-4.443,6.33-6.127c2.738-1.711,5.873-2.693,9.008-4.076c3.142-1.378,6.253-3.105,8.395-5.182
	c2.143-2.084,3.336-4.515,3.763-7.295c0.423-2.783,0.099-5.887-1.071-8.209c-1.17-2.345-3.189-3.896-5.428-4.858
	c-2.244-0.961-4.709-1.335-6.798-1.141c-2.116,0.2-3.859,0.941-5.082,1.949c-1.221,0.986-1.893,2.232-2.119,3.043
	c-0.224,0.809,0.025,1.203,0.452,1.163c0.419-0.047,1.044-0.507,2.335-0.813c1.3-0.307,3.244-0.437,4.986,0.22
	c1.743,0.656,3.285,2.101,3.933,4.182c0.648,2.08,0.448,4.773-0.996,6.784c-1.445,2.02-4.111,3.33-7.072,3.527
	c-2.987,0.197-6.301-0.742-8.542-2.783c-2.24-2.054-3.411-5.229-3.437-8.581c-0.025-3.35,1.097-6.872,3.638-9.322
	c2.515-2.454,6.447-3.877,10.407-4.098c3.935-0.218,7.895,0.77,10.909,2.322c3.012,1.553,5.078,3.678,6.671,6.217
	c1.599,2.542,2.713,5.499,2.967,8.451c0.248,2.958-0.399,5.912-0.425,9.128c-0.028,3.218,0.573,6.722,1.914,9.394
	c1.348,2.67,3.463,4.531,6.154,5.298c2.69,0.764,5.926,0.461,8.317-1.182c2.388-1.645,3.91-4.62,4.186-7.883
	c0.299-3.26-0.626-6.81-2.719-10.313c-2.091-3.502-5.376-6.959-10.036-10.946c-4.682-3.981-10.757-8.515-15.888-12.456
	c-5.126-3.939-9.31-7.334-13.347-11.754c-4.033-4.424-7.943-9.898-10.007-14.887c-2.043-4.994-2.24-9.546-1.398-13.074
	c0.874-3.523,2.792-6.04,5.482-7.923c2.69-1.885,6.146-3.128,9.56-3.615c3.413-0.481,6.796-0.151,9.561,0.679
	c2.766,0.835,4.936,2.212,7.598,3.656c2.691,1.447,5.879,2.955,9.388,3.634c3.51,0.701,7.296,0.57,10.109-0.765
	s4.633-3.92,5.13-6.631c0.497-2.719-0.298-5.607-1.891-7.774c-1.595-2.189-3.959-3.68-7.149-4.16
	c-3.164-0.484-7.147,0.042-10.605,1.312c-3.439,1.266-6.377,3.304-9.114,4.688c-2.742,1.373-5.281,2.121-7.921,2.363
	c-2.64,0.241-5.405,0-8.091-0.568c-2.711-0.549-5.405-1.405-7.896-3.546c-2.49-2.148-4.805-5.605-5.354-9.574
	c-0.549-3.961,0.649-8.447,2.293-12.212c1.614-3.767,3.658-6.813,6.646-10.162c2.989-3.347,6.896-7.003,10.709-10.158
	c3.81-3.169,7.542-5.844,11.702-8.779c4.135-2.931,8.692-6.131,12.226-9.324c3.539-3.196,6.104-6.396,7.251-9.783
	c1.17-3.379,0.942-6.943-0.726-9.507c-1.668-2.585-4.758-4.176-8.095-4.399c-3.36-0.222-6.946,0.943-9.333,3.313
	c-2.394,2.355-3.542,5.924-3.913,8.821c-0.348,2.86,0.104,5.049,0.251,7.574c0.147,2.511-0.025,5.341-1.074,8.009
	c-1.02,2.668-2.909,5.188-5.427,6.987c-2.516,1.791-5.629,2.91-9.038,2.861c-3.438-0.017-7.172-1.17-9.912-3.197
	c-2.765-1.99-4.53-4.831-4.685-7.7c-0.144-2.87,1.323-5.806,3.438-7.839c2.12-2.035,4.881-3.216,7.646-3.502
	c2.766-0.263,5.529,0.371,7.324,1.796c1.79,1.423,2.612,3.656,2.486,5.577c-0.098,1.954-1.146,3.595-2.763,4.469
	c-1.616,0.854-3.836,0.923-5.577,0.548c-1.717-0.368-2.963-1.184-3.587-1.971c-0.648-0.786-0.673-1.553-0.847-1.93
	c-0.178-0.343-0.472-0.303-0.922,0.091c-0.426,0.37-0.969,1.073-1.268,2.104c-0.304,1.026-0.351,2.409,0.521,3.677
	c0.848,1.268,2.617,2.425,4.705,3.107c2.093,0.701,4.508,0.92,6.649,0.46c2.142-0.46,4.008-1.615,5.455-3.237
	c1.441-1.625,2.49-3.684,2.863-5.891c0.375-2.213,0.125-4.574-0.871-6.505c-1-1.925-2.737-3.44-4.933-4.923
	c-2.19-1.488-4.854-2.976-6.697-5.171c-1.841-2.185-2.889-5.076-2.414-7.371c0.473-2.301,2.438-3.968,4.756-4.798
	c2.313-0.833,4.928-0.813,6.922-0.482c1.967,0.333,3.284,0.961,4.232,1.64c0.947,0.677,1.521,1.406,2.114,1.646
	c0.602,0.26,1.249,0.061,2.693-0.508c1.467-0.57,3.734-1.55,6.098-2.146c2.37-0.61,4.809-0.853,7.374-0.584
	c2.588,0.259,5.304,1.022,7.74,2.343c2.441,1.309,4.632,3.166,5.956,5.641c1.343,2.497,1.845,5.625,1.442,8.495
	c-0.397,2.872-1.715,5.474-3.536,8.019c-1.816,2.536-4.157,4.986-7.174,7.706c-3.009,2.712-6.698,5.711-10.406,8.554
	c-3.709,2.853-7.42,5.567-11.281,8.871c-3.887,3.308-7.92,7.222-11.307,10.971c-3.385,3.744-6.099,7.311-7.668,10.594
	c-1.566,3.281-1.968,6.284-1.619,8.581c0.327,2.302,1.396,3.923,3.188,5.233c1.818,1.314,4.382,2.295,7.095,2.295
	c2.716,0,5.605-0.958,7.448-2.647c1.842-1.706,2.615-4.137,3.187-6.677c0.553-2.541,0.899-5.21,0.871-8.647
	c0-3.437-0.371-7.619,0.152-11.076c0.499-3.464,1.869-6.215,4.131-8.342c2.265-2.125,5.452-3.635,8.493-4.485
	c3.037-0.879,5.9-1.098,8.615-0.787c2.714,0.325,5.255,1.182,7.469,2.945c2.217,1.782,4.086,4.43,4.732,7.49
	c0.649,3.047,0.101,6.483-1.592,9.041c-1.696,2.546-4.558,4.211-7.796,4.428c-3.237,0.194-6.822-1.051-8.916-3.133
	c-2.064-2.08-2.611-4.972-1.743-7.097c0.874-2.119,3.188-3.476,5.082-4.05c1.889-0.562,3.364-0.396,4.381-0.062
	c1.024,0.331,1.621,0.791,1.995,0.699c0.371-0.084,0.523-0.745,0-1.726c-0.525-0.986-1.692-2.276-3.758-3.071
	c-2.044-0.787-4.986-1.071-7.823-0.325c-2.835,0.768-5.604,2.584-7.294,4.965c-1.668,2.39-2.265,5.344-1.593,8.126
	c0.694,2.782,2.663,5.41,5.577,7.772c2.91,2.344,6.747,4.423,10.107,6.086c3.363,1.663,6.199,2.958,8.539,4.923
	c2.317,1.972,4.136,4.667,5.184,7.295c1.047,2.628,1.318,5.231,0.896,7.814c-0.449,2.605-1.594,5.213-3.092,7.312
	c-1.49,2.124-3.312,3.746-5.549,5.233c-2.241,1.486-4.856,2.872-7.623,4.29c-2.763,1.423-5.675,2.911-8.013,4.906
	c-2.344,1.99-4.162,4.486-4.886,7.355c-0.72,2.867-0.372,6.11,1.045,8.738c1.422,2.625,3.937,4.592,6.724,5.668
	c2.791,1.076,5.904,1.225,8.096,0.59c2.215-0.637,3.534-2.035,4.207-3.173c0.671-1.14,0.723-1.971,0.573-2.455
	c-0.146-0.455-0.498-0.544-1.021-0.28c-0.523,0.262-1.196,0.854-2.89,0.962c-1.668,0.108-4.357-0.283-6.101-2.276
	c-1.743-1.993-2.518-5.603-1.368-8.19c1.171-2.583,4.282-4.115,7.346-4.511c3.063-0.391,6.075,0.353,8.345,2.059
	c2.262,1.708,3.781,4.381,4.18,7.444c0.398,3.067-0.299,6.547-2.116,9.372c-1.819,2.823-4.735,5.011-8.592,5.779
	c-3.86,0.766-8.64,0.11-12.473-1.333c-3.84-1.446-6.752-3.656-8.695-6.526c-1.94-2.867-2.938-6.348-3.161-8.979
	c-0.225-2.627,0.301-4.354,0.472-6.98c0.176-2.632,0-6.134-0.646-9.239c-0.649-3.089-1.768-5.759-3.608-7.511
	c-1.843-1.75-4.412-2.603-6.875-2.82c-2.438-0.221-4.783,0.172-6.697,1.376c-1.942,1.206-3.464,3.196-4.011,5.715
	c-0.549,2.514-0.099,5.559,1.396,8.842c1.493,3.286,4.033,6.787,7.394,10.597c3.362,3.788,7.548,7.862,13,12.459
	c5.454,4.596,12.205,9.72,17.357,13.99c5.153,4.269,8.74,7.685,11.332,11.204c2.586,3.53,4.184,7.121,4.855,10.709
	c0.67,3.569,0.396,7.115-0.973,10.16c-1.367,3.042-3.858,5.627-6.673,7.199c-2.814,1.599-5.978,2.211-9.338,2.345
	c-3.363,0.129-6.902-0.221-10.114-1.27c-3.234-1.075-6.147-2.845-8.962-4.096c-2.814-1.249-5.502-1.971-8.091-2.211
	c-2.592-0.241-5.029,0-7.072,0.767c-2.043,0.767-3.639,2.078-4.609,3.263c-0.97,1.16-1.318,2.19-1.494,3.042
	c-0.175,0.854-0.175,1.531-0.175,2.213"/>
<path fill="#E8DDD4" d="M196.347,198.132c0,0.701,0,1.399-0.072,2.582c-0.075,1.204-0.204,2.891-1.443,4.947
	c-1.245,2.038-3.586,4.445-6.333,6.133c-2.736,1.706-5.871,2.691-9.007,4.071c-3.144,1.381-6.252,3.11-8.394,5.184
	c-2.143,2.083-3.336,4.511-3.761,7.295c-0.421,2.781-0.102,5.886,1.068,8.205c1.169,2.348,3.189,3.901,5.428,4.863
	c2.244,0.96,4.708,1.336,6.798,1.143c2.121-0.201,3.86-0.942,5.084-1.95c1.218-0.987,1.891-2.233,2.119-3.044
	c0.222-0.81-0.028-1.203-0.451-1.163c-0.423,0.045-1.047,0.507-2.339,0.812c-1.296,0.306-3.244,0.436-4.986-0.22
	c-1.743-0.657-3.285-2.1-3.929-4.181c-0.652-2.08-0.451-4.775,0.993-6.785c1.446-2.016,4.109-3.327,7.072-3.528
	c2.987-0.197,6.301,0.744,8.542,2.783c2.241,2.056,3.413,5.229,3.438,8.583c0.025,3.349-1.099,6.875-3.639,9.325
	c-2.511,2.453-6.445,3.872-10.406,4.093c-3.936,0.22-7.897-0.767-10.908-2.319c-3.015-1.553-5.081-3.677-6.67-6.217
	c-1.598-2.541-2.716-5.499-2.968-8.449c-0.25-2.958,0.399-5.914,0.423-9.13c0.028-3.218-0.573-6.723-1.914-9.394
	c-1.344-2.669-3.462-4.529-6.154-5.297c-2.689-0.764-5.926-0.461-8.317,1.182c-2.388,1.644-3.907,4.621-4.183,7.881
	c-0.3,3.263,0.624,6.81,2.716,10.312c2.091,3.505,5.379,6.962,10.036,10.947c4.682,3.984,10.753,8.518,15.889,12.458
	c5.129,3.939,9.313,7.334,13.346,11.755c4.033,4.423,7.943,9.899,10.007,14.886c2.044,4.994,2.243,9.546,1.4,13.072
	c-0.872,3.524-2.792,6.044-5.483,7.928c-2.691,1.88-6.147,3.126-9.559,3.61c-3.417,0.479-6.798,0.15-9.563-0.679
	c-2.762-0.835-4.936-2.211-7.597-3.656c-2.691-1.448-5.879-2.955-9.389-3.634c-3.509-0.701-7.295-0.569-10.109,0.766
	c-2.813,1.333-4.631,3.918-5.13,6.63c-0.494,2.718,0.298,5.605,1.891,7.774c1.596,2.188,3.961,3.681,7.149,4.161
	c3.161,0.48,7.148-0.044,10.606-1.313c3.442-1.269,6.376-3.306,9.114-4.688c2.743-1.375,5.285-2.121,7.922-2.363
	c2.639-0.238,5.405,0,8.091,0.568c2.715,0.552,5.407,1.404,7.896,3.549c2.489,2.146,4.805,5.602,5.349,9.573
	c0.552,3.959-0.645,8.445-2.286,12.212c-1.618,3.764-3.661,6.812-6.65,10.159c-2.989,3.348-6.897,7.003-10.71,10.158
	c-3.812,3.172-7.54,5.843-11.701,8.78c-4.135,2.931-8.69,6.129-12.225,9.325c-3.541,3.194-6.102,6.396-7.25,9.781
	c-1.17,3.38-0.945,6.943,0.723,9.508c1.67,2.584,4.757,4.177,8.095,4.401c3.359,0.219,6.946-0.946,9.333-3.312
	c2.393-2.358,3.542-5.926,3.915-8.824c0.346-2.861-0.105-5.053-0.25-7.575c-0.151-2.511,0.022-5.343,1.071-8.009
	c1.02-2.669,2.913-5.188,5.426-6.986c2.516-1.792,5.63-2.91,9.038-2.862c3.439,0.016,7.173,1.171,9.913,3.195
	c2.765,1.994,4.53,4.833,4.685,7.703c0.144,2.869-1.323,5.805-3.439,7.837c-2.116,2.035-4.881,3.217-7.645,3.503
	c-2.763,0.264-5.53-0.368-7.322-1.795c-1.795-1.422-2.612-3.657-2.49-5.579c0.096-1.953,1.146-3.594,2.767-4.469
	c1.612-0.853,3.833-0.92,5.574-0.547c1.72,0.366,2.966,1.184,3.589,1.97c0.646,0.783,0.668,1.554,0.844,1.933
	c0.176,0.343,0.474,0.304,0.922-0.094c0.426-0.366,0.969-1.07,1.27-2.102c0.305-1.026,0.348-2.411-0.524-3.677
	c-0.848-1.269-2.613-2.428-4.706-3.107c-2.091-0.703-4.508-0.923-6.646-0.46c-2.145,0.46-4.012,1.613-5.457,3.236
	c-1.444,1.623-2.489,3.684-2.864,5.893c-0.375,2.211-0.125,4.572,0.875,6.503c0.997,1.927,2.736,3.438,4.928,4.921
	c2.195,1.489,4.854,2.978,6.697,5.173c1.843,2.186,2.89,5.077,2.415,7.37c-0.471,2.302-2.438,3.971-4.755,4.799
	c-2.311,0.836-4.929,0.814-6.921,0.482c-1.968-0.331-3.285-0.959-4.234-1.641c-0.947-0.678-1.521-1.404-2.114-1.645
	c-0.6-0.26-1.249-0.061-2.693,0.507c-1.466,0.569-3.734,1.55-6.097,2.148c-2.37,0.607-4.809,0.849-7.372,0.581
	c-2.591-0.257-5.306-1.021-7.743-2.341c-2.44-1.312-4.632-3.165-5.956-5.643c-1.343-2.496-1.842-5.626-1.442-8.494
	c0.401-2.87,1.715-5.475,3.536-8.02c1.816-2.538,4.157-4.986,7.174-7.707c3.012-2.712,6.699-5.709,10.405-8.553
	c3.71-2.853,7.421-5.563,11.282-8.87c3.888-3.311,7.918-7.223,11.309-10.971c3.384-3.745,6.098-7.312,7.667-10.595
	c1.567-3.283,1.967-6.283,1.618-8.578c-0.324-2.304-1.393-3.923-3.188-5.234c-1.818-1.318-4.382-2.299-7.095-2.299
	c-2.715,0-5.605,0.961-7.448,2.651c-1.842,1.705-2.616,4.132-3.189,6.674c-0.547,2.541-0.893,5.211-0.868,8.648
	c0,3.438,0.374,7.618-0.148,11.076c-0.503,3.462-1.874,6.215-4.135,8.346c-2.266,2.121-5.452,3.631-8.494,4.484
	c-3.034,0.878-5.898,1.095-8.614,0.783c-2.713-0.324-5.256-1.184-7.471-2.942c-2.215-1.783-4.085-4.433-4.731-7.494
	c-0.649-3.045-0.1-6.482,1.592-9.042c1.698-2.542,4.558-4.208,7.796-4.425c3.236-0.195,6.823,1.052,8.918,3.132
	c2.065,2.078,2.608,4.972,1.742,7.096c-0.875,2.12-3.189,3.476-5.084,4.051c-1.889,0.563-3.364,0.398-4.38,0.062
	c-1.025-0.325-1.619-0.789-1.996-0.697c-0.371,0.083-0.522,0.743,0,1.725c0.526,0.987,1.697,2.278,3.758,3.071
	c2.045,0.786,4.986,1.069,7.825,0.326c2.833-0.769,5.601-2.584,7.296-4.969c1.665-2.387,2.265-5.342,1.593-8.122
	c-0.698-2.783-2.664-5.413-5.58-7.775c-2.912-2.343-6.749-4.422-10.106-6.084c-3.364-1.662-6.205-2.959-8.541-4.923
	c-2.317-1.972-4.135-4.671-5.184-7.295c-1.046-2.629-1.318-5.233-0.896-7.815c0.453-2.606,1.594-5.212,3.091-7.311
	c1.491-2.126,3.312-3.748,5.55-5.232c2.243-1.49,4.858-2.875,7.626-4.29c2.763-1.427,5.676-2.911,8.01-4.908
	c2.343-1.99,4.162-4.485,4.885-7.354c0.72-2.872,0.372-6.111-1.042-8.736c-1.423-2.625-3.939-4.596-6.725-5.673
	c-2.788-1.071-5.903-1.222-8.096-0.589c-2.215,0.638-3.533,2.035-4.207,3.172c-0.675,1.142-0.723,1.975-0.572,2.457
	c0.146,0.456,0.497,0.545,1.016,0.282c0.529-0.263,1.201-0.854,2.89-0.964c1.67-0.106,4.361,0.284,6.104,2.279
	c1.743,1.989,2.518,5.601,1.372,8.187c-1.17,2.583-4.285,4.118-7.35,4.512c-3.062,0.39-6.075-0.352-8.345-2.059
	c-2.26-1.709-3.778-4.382-4.178-7.444c-0.399-3.065,0.295-6.548,2.115-9.371c1.821-2.823,4.736-5.011,8.594-5.779
	c3.858-0.765,8.642-0.109,12.47,1.334c3.84,1.445,6.754,3.655,8.696,6.524c1.943,2.868,2.938,6.35,3.161,8.976
	c0.226,2.629-0.301,4.357-0.471,6.985c-0.176,2.628,0,6.134,0.644,9.237c0.65,3.088,1.768,5.758,3.611,7.507
	c1.84,1.754,4.41,2.607,6.873,2.824c2.439,0.222,4.783-0.17,6.697-1.374c1.946-1.208,3.462-3.199,4.012-5.718
	c0.548-2.513,0.1-5.558-1.395-8.843c-1.495-3.283-4.031-6.786-7.395-10.599c-3.365-3.784-7.547-7.859-13-12.453
	c-5.453-4.598-12.202-9.721-17.356-13.992c-5.152-4.27-8.744-7.684-11.333-11.206c-2.586-3.532-4.184-7.12-4.856-10.71
	c-0.667-3.569-0.399-7.113,0.974-10.157c1.368-3.045,3.861-5.627,6.675-7.203c2.813-1.598,5.975-2.21,9.334-2.344
	c3.364-0.128,6.903,0.221,10.113,1.272c3.241,1.071,6.151,2.843,8.964,4.091c2.814,1.251,5.504,1.972,8.093,2.215
	c2.589,0.242,5.031,0,7.071-0.766c2.045-0.771,3.637-2.081,4.609-3.264c0.972-1.16,1.319-2.188,1.495-3.044
	c0.173-0.854,0.173-1.53,0.173-2.212"/>
<path fill="#E8DDD4" d="M196.347,198.718c0-0.702,0-1.401-0.073-2.582c-0.075-1.204-0.201-2.892-1.445-4.95
	c-1.246-2.036-3.585-4.443-6.33-6.127c-2.737-1.711-5.873-2.693-9.007-4.076c-3.142-1.378-6.252-3.105-8.395-5.182
	c-2.142-2.084-3.336-4.515-3.763-7.295c-0.423-2.783-0.099-5.887,1.071-8.209c1.169-2.345,3.189-3.896,5.428-4.858
	c2.244-0.961,4.708-1.335,6.798-1.141c2.116,0.2,3.86,0.941,5.082,1.949c1.221,0.986,1.892,2.232,2.119,3.043
	c0.224,0.809-0.026,1.203-0.453,1.163c-0.419-0.047-1.043-0.507-2.335-0.813c-1.299-0.307-3.244-0.437-4.986,0.22
	c-1.744,0.656-3.285,2.101-3.933,4.182c-0.648,2.08-0.448,4.773,0.997,6.784c1.445,2.02,4.11,3.33,7.071,3.527
	c2.989,0.197,6.301-0.742,8.543-2.783c2.24-2.054,3.411-5.229,3.436-8.581c0.026-3.35-1.097-6.872-3.637-9.322
	c-2.515-2.454-6.448-3.877-10.408-4.098c-3.934-0.218-7.895,0.77-10.908,2.322c-3.013,1.553-5.079,3.678-6.672,6.217
	c-1.599,2.542-2.713,5.499-2.967,8.451c-0.249,2.958,0.4,5.912,0.424,9.128c0.028,3.218-0.573,6.722-1.914,9.394
	c-1.348,2.67-3.463,4.531-6.154,5.298c-2.69,0.764-5.926,0.461-8.317-1.182c-2.388-1.645-3.91-4.62-4.187-7.883
	c-0.297-3.26,0.627-6.81,2.72-10.313c2.091-3.502,5.376-6.959,10.036-10.946c4.682-3.981,10.757-8.515,15.889-12.456
	c5.125-3.939,9.309-7.334,13.346-11.754c4.033-4.424,7.943-9.898,10.007-14.887c2.043-4.994,2.24-9.546,1.397-13.074
	c-0.873-3.523-2.791-6.04-5.481-7.923c-2.69-1.885-6.146-3.128-9.561-3.615c-3.413-0.481-6.795-0.151-9.56,0.679
	c-2.766,0.835-4.936,2.212-7.597,3.656c-2.691,1.447-5.879,2.955-9.389,3.634c-3.509,0.701-7.295,0.57-10.109-0.765
	s-4.633-3.92-5.13-6.631c-0.497-2.719,0.298-5.607,1.891-7.774c1.595-2.189,3.959-3.68,7.149-4.16
	c3.164-0.484,7.148,0.042,10.606,1.312c3.439,1.266,6.376,3.304,9.114,4.688c2.743,1.373,5.282,2.121,7.921,2.363
	c2.64,0.241,5.406,0,8.092-0.568c2.71-0.549,5.405-1.405,7.896-3.546c2.49-2.148,4.805-5.605,5.353-9.574
	c0.549-3.961-0.649-8.447-2.293-12.212c-1.614-3.767-3.658-6.813-6.646-10.162c-2.99-3.347-6.897-7.003-10.709-10.158
	c-3.81-3.169-7.542-5.844-11.702-8.779c-4.135-2.931-8.693-6.131-12.226-9.324c-3.54-3.196-6.103-6.396-7.25-9.783
	c-1.171-3.379-0.943-6.943,0.725-9.507c1.668-2.585,4.757-4.176,8.095-4.399c3.359-0.222,6.946,0.943,9.333,3.313
	c2.393,2.355,3.542,5.924,3.913,8.821c0.348,2.86-0.104,5.049-0.251,7.574c-0.147,2.511,0.026,5.341,1.075,8.009
	c1.02,2.668,2.909,5.188,5.427,6.987c2.515,1.791,5.629,2.91,9.038,2.861c3.438-0.017,7.172-1.17,9.912-3.197
	c2.765-1.99,4.53-4.831,4.685-7.7c0.144-2.87-1.323-5.806-3.439-7.839c-2.119-2.035-4.881-3.216-7.646-3.502
	c-2.766-0.263-5.529,0.371-7.324,1.796c-1.791,1.423-2.613,3.656-2.487,5.577c0.098,1.954,1.146,3.595,2.763,4.469
	c1.616,0.854,3.835,0.923,5.578,0.548c1.716-0.368,2.963-1.184,3.587-1.971c0.647-0.786,0.672-1.553,0.846-1.93
	c0.178-0.343,0.472-0.303,0.922,0.091c0.426,0.37,0.969,1.073,1.267,2.104c0.304,1.026,0.351,2.409-0.521,3.677
	c-0.848,1.268-2.618,2.425-4.706,3.107c-2.091,0.701-4.508,0.92-6.649,0.46c-2.142-0.46-4.008-1.615-5.455-3.237
	c-1.442-1.625-2.49-3.684-2.863-5.891c-0.375-2.213-0.125-4.574,0.871-6.505c1-1.925,2.738-3.44,4.932-4.923
	c2.191-1.488,4.854-2.976,6.697-5.171c1.841-2.185,2.89-5.076,2.415-7.371c-0.473-2.301-2.438-3.968-4.755-4.798
	c-2.315-0.833-4.929-0.813-6.923-0.482c-1.966,0.333-3.284,0.961-4.232,1.64c-0.947,0.677-1.521,1.406-2.114,1.646
	c-0.602,0.26-1.249,0.061-2.693-0.508c-1.466-0.57-3.734-1.55-6.097-2.146c-2.37-0.61-4.809-0.853-7.375-0.584
	c-2.587,0.259-5.303,1.022-7.74,2.343c-2.441,1.309-4.632,3.166-5.957,5.641c-1.342,2.497-1.844,5.625-1.441,8.495
	c0.397,2.872,1.714,5.474,3.536,8.019c1.816,2.536,4.157,4.986,7.174,7.706c3.009,2.712,6.699,5.711,10.405,8.554
	c3.71,2.853,7.421,5.567,11.282,8.871c3.887,3.308,7.919,7.222,11.307,10.971c3.386,3.744,6.1,7.311,7.669,10.594
	c1.565,3.281,1.967,6.284,1.618,8.581c-0.327,2.302-1.395,3.923-3.188,5.233c-1.818,1.314-4.382,2.295-7.095,2.295
	c-2.716,0-5.605-0.958-7.448-2.647c-1.842-1.706-2.616-4.137-3.187-6.677c-0.552-2.541-0.899-5.21-0.871-8.647
	c0-3.437,0.371-7.619-0.152-11.076c-0.5-3.464-1.87-6.215-4.131-8.342c-2.265-2.125-5.452-3.635-8.494-4.485
	c-3.037-0.879-5.901-1.098-8.616-0.787c-2.714,0.325-5.254,1.182-7.469,2.945c-2.216,1.782-4.085,4.43-4.731,7.49
	c-0.649,3.047-0.1,6.483,1.592,9.041c1.696,2.546,4.558,4.211,7.796,4.428c3.236,0.194,6.823-1.051,8.916-3.133
	c2.064-2.08,2.611-4.972,1.744-7.097c-0.874-2.119-3.188-3.476-5.083-4.05c-1.889-0.562-3.364-0.396-4.381-0.062
	c-1.024,0.331-1.621,0.791-1.995,0.699c-0.371-0.084-0.522-0.745,0-1.726c0.526-0.986,1.693-2.276,3.758-3.071
	c2.044-0.787,4.986-1.071,7.824-0.325c2.835,0.768,5.603,2.584,7.294,4.965c1.668,2.39,2.265,5.344,1.592,8.126
	c-0.694,2.782-2.663,5.41-5.576,7.772c-2.912,2.344-6.749,4.423-10.108,6.086c-3.364,1.663-6.2,2.958-8.539,4.923
	c-2.318,1.972-4.137,4.667-5.184,7.295c-1.047,2.628-1.318,5.231-0.896,7.814c0.45,2.605,1.594,5.213,3.091,7.312
	c1.491,2.124,3.312,3.746,5.55,5.233c2.241,1.486,4.856,2.872,7.623,4.29c2.763,1.423,5.675,2.911,8.013,4.906
	c2.343,1.99,4.162,4.486,4.885,7.355c0.72,2.867,0.372,6.11-1.045,8.738c-1.422,2.625-3.936,4.592-6.723,5.668
	c-2.791,1.076-5.905,1.225-8.095,0.59c-2.215-0.637-3.534-2.035-4.207-3.173c-0.672-1.14-0.723-1.971-0.574-2.455
	c0.147-0.455,0.498-0.544,1.021-0.28c0.522,0.262,1.195,0.854,2.889,0.962c1.668,0.108,4.358-0.283,6.101-2.276
	c1.743-1.993,2.518-5.603,1.368-8.19c-1.17-2.583-4.282-4.115-7.346-4.511c-3.063-0.391-6.075,0.353-8.345,2.059
	c-2.262,1.708-3.781,4.381-4.178,7.444c-0.4,3.067,0.297,6.547,2.115,9.372c1.819,2.823,4.736,5.011,8.592,5.779
	c3.861,0.766,8.64,0.11,12.473-1.333c3.84-1.446,6.752-3.656,8.696-6.526c1.94-2.867,2.938-6.348,3.161-8.979
	c0.225-2.627-0.301-4.354-0.471-6.98c-0.176-2.632,0-6.134,0.644-9.239c0.65-3.089,1.768-5.759,3.609-7.511
	c1.843-1.75,4.412-2.603,6.875-2.82c2.439-0.221,4.783,0.172,6.697,1.376c1.943,1.206,3.464,3.196,4.01,5.715
	c0.549,2.514,0.099,5.559-1.395,8.842c-1.494,3.286-4.034,6.787-7.394,10.597c-3.362,3.788-7.547,7.862-13,12.459
	c-5.455,4.596-12.205,9.72-17.358,13.99c-5.153,4.269-8.74,7.685-11.332,11.204c-2.586,3.53-4.184,7.121-4.856,10.709
	c-0.67,3.569-0.396,7.115,0.974,10.16c1.367,3.042,3.858,5.627,6.673,7.199c2.814,1.599,5.978,2.211,9.337,2.345
	c3.364,0.129,6.903-0.221,10.115-1.27c3.234-1.075,6.147-2.845,8.962-4.096c2.814-1.249,5.501-1.971,8.09-2.211
	c2.591-0.241,5.03,0,7.073,0.767c2.043,0.767,3.638,2.078,4.609,3.263c0.97,1.16,1.318,2.19,1.495,3.042
	c0.174,0.854,0.174,1.531,0.174,2.213"/>
<path fill="#E8DDD4" d="M333.285,198.132c0,0.701,0,1.399,0.071,2.582c0.075,1.204,0.204,2.891,1.443,4.947
	c1.246,2.038,3.586,4.445,6.332,6.133c2.736,1.706,5.871,2.691,9.008,4.071c3.144,1.381,6.253,3.11,8.394,5.184
	c2.143,2.083,3.333,4.511,3.757,7.295c0.421,2.781,0.102,5.886-1.066,8.205c-1.168,2.348-3.188,3.901-5.426,4.863
	c-2.244,0.96-4.709,1.336-6.798,1.143c-2.12-0.201-3.859-0.942-5.085-1.95c-1.218-0.987-1.891-2.233-2.118-3.044
	c-0.222-0.81,0.027-1.203,0.45-1.163c0.423,0.045,1.048,0.507,2.339,0.812c1.297,0.306,3.244,0.436,4.986-0.22
	c1.742-0.657,3.285-2.1,3.929-4.181c0.652-2.08,0.451-4.775-0.993-6.785c-1.445-2.016-4.109-3.327-7.072-3.528
	c-2.986-0.197-6.301,0.744-8.541,2.783c-2.241,2.056-3.414,5.229-3.438,8.583c-0.024,3.349,1.099,6.875,3.639,9.325
	c2.511,2.453,6.445,3.872,10.406,4.093c3.937,0.22,7.896-0.767,10.909-2.319c3.012-1.553,5.074-3.677,6.664-6.217
	c1.598-2.541,2.715-5.499,2.967-8.449c0.25-2.958-0.398-5.914-0.422-9.13c-0.029-3.218,0.572-6.723,1.914-9.394
	c1.344-2.669,3.461-4.529,6.154-5.297c2.689-0.764,5.925-0.461,8.317,1.182c2.387,1.644,3.906,4.621,4.182,7.881
	c0.303,3.263-0.623,6.81-2.715,10.312c-2.092,3.505-5.381,6.962-10.036,10.947c-4.682,3.984-10.754,8.518-15.882,12.458
	c-5.13,3.939-9.314,7.334-13.347,11.755c-4.033,4.423-7.943,9.899-10.008,14.886c-2.044,4.994-2.242,9.546-1.399,13.072
	c0.872,3.524,2.792,6.044,5.483,7.928c2.691,1.88,6.147,3.126,9.559,3.61c3.416,0.479,6.798,0.15,9.562-0.679
	c2.759-0.835,4.93-2.211,7.592-3.656c2.691-1.448,5.879-2.955,9.387-3.634c3.509-0.701,7.296-0.569,10.11,0.766
	c2.812,1.333,4.631,3.918,5.129,6.63c0.494,2.718-0.297,5.605-1.891,7.774c-1.596,2.188-3.961,3.681-7.148,4.161
	c-3.162,0.48-7.147-0.044-10.606-1.313c-3.441-1.269-6.377-3.306-9.112-4.688c-2.737-1.375-5.279-2.121-7.917-2.363
	c-2.639-0.238-5.404,0-8.09,0.568c-2.715,0.552-5.407,1.404-7.896,3.549c-2.489,2.146-4.806,5.602-5.35,9.573
	c-0.553,3.959,0.645,8.445,2.286,12.212c1.618,3.764,3.66,6.812,6.649,10.159c2.989,3.348,6.897,7.003,10.711,10.158
	c3.812,3.172,7.539,5.843,11.695,8.78c4.135,2.931,8.689,6.129,12.223,9.325c3.542,3.194,6.103,6.396,7.251,9.781
	c1.17,3.38,0.945,6.943-0.723,9.508c-1.67,2.584-4.758,4.177-8.095,4.401c-3.361,0.219-6.947-0.946-9.334-3.312
	c-2.393-2.358-3.539-5.926-3.912-8.824c-0.345-2.861,0.105-5.053,0.249-7.575c0.151-2.511-0.021-5.343-1.068-8.009
	c-1.018-2.669-2.911-5.188-5.425-6.986c-2.516-1.792-5.629-2.91-9.036-2.862c-3.44,0.016-7.174,1.171-9.914,3.195
	c-2.766,1.994-4.53,4.833-4.685,7.703c-0.145,2.869,1.323,5.805,3.438,7.837c2.116,2.035,4.881,3.217,7.645,3.503
	c2.763,0.264,5.529-0.368,7.321-1.795c1.795-1.422,2.612-3.657,2.49-5.579c-0.096-1.953-1.146-3.594-2.767-4.469
	c-1.612-0.853-3.833-0.92-5.573-0.547c-1.721,0.366-2.968,1.184-3.589,1.97c-0.646,0.783-0.669,1.554-0.845,1.933
	c-0.176,0.343-0.474,0.304-0.922-0.094c-0.426-0.366-0.969-1.07-1.271-2.102c-0.304-1.026-0.348-2.411,0.524-3.677
	c0.848-1.269,2.613-2.428,4.705-3.107c2.093-0.703,4.508-0.923,6.646-0.46c2.145,0.46,4.011,1.613,5.456,3.236
	c1.443,1.623,2.489,3.684,2.864,5.893c0.376,2.211,0.125,4.572-0.875,6.503c-0.996,1.927-2.736,3.438-4.928,4.921
	c-2.194,1.489-4.854,2.978-6.697,5.173c-1.843,2.186-2.889,5.077-2.414,7.37c0.471,2.302,2.438,3.971,4.756,4.799
	c2.311,0.836,4.928,0.814,6.92,0.482c1.969-0.331,3.285-0.959,4.234-1.641c0.946-0.678,1.52-1.404,2.111-1.645
	c0.6-0.26,1.247-0.061,2.689,0.507c1.467,0.569,3.734,1.55,6.098,2.148c2.371,0.607,4.809,0.849,7.373,0.581
	c2.591-0.257,5.306-1.021,7.741-2.341c2.439-1.312,4.633-3.165,5.955-5.643c1.344-2.496,1.842-5.626,1.443-8.494
	c-0.4-2.87-1.715-5.475-3.535-8.02c-1.816-2.538-4.158-4.986-7.174-7.707c-3.012-2.712-6.698-5.709-10.407-8.553
	c-3.709-2.853-7.42-5.563-11.275-8.87c-3.887-3.311-7.917-7.223-11.308-10.971c-3.384-3.745-6.097-7.312-7.667-10.595
	c-1.566-3.283-1.967-6.283-1.618-8.578c0.324-2.304,1.393-3.923,3.188-5.234c1.818-1.318,4.382-2.299,7.095-2.299
	c2.715,0,5.605,0.961,7.448,2.651c1.842,1.705,2.615,4.132,3.188,6.674c0.545,2.541,0.891,5.211,0.866,8.648
	c0,3.438-0.373,7.618,0.147,11.076c0.503,3.462,1.871,6.215,4.132,8.346c2.266,2.121,5.453,3.631,8.494,4.484
	c3.033,0.878,5.897,1.095,8.614,0.783c2.713-0.324,5.254-1.184,7.469-2.942c2.217-1.783,4.086-4.433,4.732-7.494
	c0.65-3.045,0.102-6.482-1.592-9.042c-1.699-2.542-4.557-4.208-7.795-4.425c-3.238-0.195-6.824,1.052-8.919,3.132
	c-2.066,2.078-2.609,4.972-1.742,7.096c0.875,2.12,3.189,3.476,5.083,4.051c1.889,0.563,3.365,0.398,4.381,0.062
	c1.025-0.325,1.619-0.789,1.996-0.697c0.371,0.083,0.523,0.743,0,1.725c-0.525,0.987-1.695,2.278-3.758,3.071
	c-2.045,0.786-4.987,1.069-7.825,0.326c-2.834-0.769-5.602-2.584-7.297-4.969c-1.664-2.387-2.264-5.342-1.592-8.122
	c0.697-2.783,2.662-5.413,5.58-7.775c2.91-2.343,6.748-4.422,10.106-6.084c3.363-1.662,6.203-2.959,8.541-4.923
	c2.316-1.972,4.135-4.671,5.184-7.295c1.045-2.629,1.316-5.233,0.896-7.815c-0.453-2.606-1.594-5.212-3.092-7.311
	c-1.492-2.126-3.312-3.748-5.551-5.232c-2.242-1.49-4.857-2.875-7.625-4.29c-2.763-1.427-5.675-2.911-8.009-4.908
	c-2.344-1.99-4.162-4.485-4.887-7.354c-0.719-2.872-0.371-6.111,1.043-8.736c1.424-2.625,3.939-4.596,6.725-5.673
	c2.787-1.071,5.903-1.222,8.097-0.589c2.215,0.638,3.533,2.035,4.207,3.172c0.674,1.142,0.723,1.975,0.572,2.457
	c-0.146,0.456-0.496,0.545-1.016,0.282c-0.529-0.263-1.201-0.854-2.891-0.964c-1.67-0.106-4.361,0.284-6.103,2.279
	c-1.744,1.989-2.518,5.601-1.371,8.187c1.17,2.583,4.284,4.118,7.349,4.512c3.062,0.39,6.074-0.352,8.344-2.059
	c2.262-1.709,3.779-4.382,4.18-7.444c0.398-3.065-0.297-6.548-2.115-9.371c-1.82-2.823-4.736-5.011-8.594-5.779
	c-3.859-0.765-8.642-0.109-12.472,1.334c-3.84,1.445-6.754,3.655-8.695,6.524c-1.941,2.868-2.934,6.35-3.156,8.976
	c-0.226,2.629,0.3,4.357,0.471,6.985c0.174,2.628,0,6.134-0.645,9.237c-0.648,3.088-1.766,5.758-3.608,7.507
	c-1.841,1.754-4.411,2.607-6.873,2.824c-2.438,0.222-4.783-0.17-6.697-1.374c-1.946-1.208-3.462-3.199-4.012-5.718
	c-0.548-2.513-0.1-5.558,1.395-8.843c1.495-3.283,4.031-6.786,7.396-10.599c3.365-3.784,7.547-7.859,12.997-12.453
	c5.45-4.598,12.198-9.721,17.352-13.992c5.152-4.27,8.744-7.684,11.334-11.206c2.586-3.532,4.184-7.12,4.855-10.71
	c0.668-3.569,0.4-7.113-0.973-10.157c-1.369-3.045-3.861-5.627-6.676-7.203c-2.812-1.598-5.975-2.21-9.335-2.344
	c-3.363-0.128-6.902,0.221-10.111,1.272c-3.24,1.071-6.148,2.843-8.959,4.091c-2.813,1.251-5.504,1.972-8.092,2.215
	c-2.59,0.242-5.032,0-7.072-0.766c-2.045-0.771-3.637-2.081-4.608-3.264c-0.973-1.16-1.32-2.188-1.495-3.044
	c-0.173-0.854-0.173-1.53-0.173-2.212"/>
<path fill="#E8DDD4" d="M333.285,198.718c0-0.702,0-1.401,0.072-2.582c0.075-1.204,0.201-2.892,1.444-4.95
	c1.247-2.036,3.586-4.443,6.33-6.127c2.737-1.711,5.873-2.693,9.008-4.076c3.142-1.378,6.253-3.105,8.395-5.182
	c2.142-2.084,3.333-4.515,3.759-7.295c0.423-2.783,0.099-5.887-1.069-8.209c-1.168-2.345-3.188-3.896-5.426-4.858
	c-2.244-0.961-4.709-1.335-6.798-1.141c-2.116,0.2-3.859,0.941-5.082,1.949c-1.221,0.986-1.893,2.232-2.119,3.043
	c-0.224,0.809,0.025,1.203,0.452,1.163c0.419-0.047,1.044-0.507,2.335-0.813c1.3-0.307,3.244-0.437,4.986,0.22
	c1.743,0.656,3.285,2.101,3.933,4.182c0.648,2.08,0.448,4.773-0.997,6.784c-1.444,2.02-4.11,3.33-7.071,3.527
	c-2.987,0.197-6.301-0.742-8.542-2.783c-2.24-2.054-3.412-5.229-3.437-8.581c-0.025-3.35,1.097-6.872,3.637-9.322
	c2.516-2.454,6.448-3.877,10.408-4.098c3.935-0.218,7.895,0.77,10.909,2.322c3.01,1.553,5.072,3.678,6.664,6.217
	c1.6,2.542,2.713,5.499,2.967,8.451c0.248,2.958-0.398,5.912-0.424,9.128c-0.029,3.218,0.572,6.722,1.914,9.394
	c1.348,2.67,3.463,4.531,6.154,5.298c2.689,0.764,5.925,0.461,8.317-1.182c2.387-1.645,3.91-4.62,4.186-7.883
	c0.299-3.26-0.627-6.81-2.719-10.313c-2.092-3.502-5.377-6.959-10.036-10.946c-4.682-3.981-10.758-8.515-15.882-12.456
	c-5.126-3.939-9.31-7.334-13.347-11.754c-4.033-4.424-7.943-9.898-10.008-14.887c-2.043-4.994-2.239-9.546-1.397-13.074
	c0.874-3.523,2.792-6.04,5.482-7.923c2.69-1.885,6.146-3.128,9.56-3.615c3.413-0.481,6.796-0.151,9.561,0.679
	c2.763,0.835,4.93,2.212,7.592,3.656c2.691,1.447,5.879,2.955,9.387,3.634c3.509,0.701,7.296,0.57,10.11-0.765
	c2.812-1.335,4.633-3.92,5.129-6.631c0.496-2.719-0.297-5.607-1.891-7.774c-1.594-2.189-3.959-3.68-7.148-4.16
	c-3.164-0.484-7.147,0.042-10.606,1.312c-3.439,1.266-6.377,3.304-9.112,4.688c-2.737,1.373-5.276,2.121-7.916,2.363
	c-2.64,0.241-5.405,0-8.091-0.568c-2.711-0.549-5.405-1.405-7.896-3.546c-2.49-2.148-4.806-5.605-5.354-9.574
	c-0.55-3.961,0.649-8.447,2.293-12.212c1.614-3.767,3.658-6.813,6.646-10.162c2.99-3.347,6.897-7.003,10.71-10.158
	c3.81-3.169,7.541-5.844,11.696-8.779c4.135-2.931,8.691-6.131,12.225-9.324c3.54-3.196,6.104-6.396,7.251-9.783
	c1.17-3.379,0.943-6.943-0.725-9.507c-1.668-2.585-4.758-4.176-8.095-4.399c-3.361-0.222-6.947,0.943-9.334,3.313
	c-2.393,2.355-3.539,5.924-3.91,8.821c-0.347,2.86,0.104,5.049,0.251,7.574c0.147,2.511-0.025,5.341-1.072,8.009
	c-1.018,2.668-2.907,5.188-5.426,6.987c-2.515,1.791-5.628,2.91-9.037,2.861c-3.438-0.017-7.172-1.17-9.912-3.197
	c-2.766-1.99-4.53-4.831-4.685-7.7c-0.145-2.87,1.323-5.806,3.438-7.839c2.12-2.035,4.881-3.216,7.646-3.502
	c2.766-0.263,5.528,0.371,7.323,1.796c1.791,1.423,2.613,3.656,2.487,5.577c-0.098,1.954-1.146,3.595-2.763,4.469
	c-1.616,0.854-3.836,0.923-5.577,0.548c-1.717-0.368-2.964-1.184-3.587-1.971c-0.648-0.786-0.673-1.553-0.847-1.93
	c-0.178-0.343-0.472-0.303-0.922,0.091c-0.426,0.37-0.969,1.073-1.268,2.104c-0.304,1.026-0.351,2.409,0.521,3.677
	c0.848,1.268,2.617,2.425,4.705,3.107c2.093,0.701,4.508,0.92,6.649,0.46c2.142-0.46,4.008-1.615,5.455-3.237
	c1.441-1.625,2.49-3.684,2.862-5.891c0.376-2.213,0.126-4.574-0.87-6.505c-1-1.925-2.737-3.44-4.933-4.923
	c-2.19-1.488-4.854-2.976-6.697-5.171c-1.841-2.185-2.889-5.076-2.414-7.371c0.473-2.301,2.438-3.968,4.756-4.798
	c2.313-0.833,4.928-0.813,6.922-0.482c1.967,0.333,3.284,0.961,4.232,1.64c0.946,0.677,1.52,1.406,2.111,1.646
	c0.601,0.26,1.247,0.061,2.689-0.508c1.467-0.57,3.734-1.55,6.098-2.146c2.371-0.61,4.809-0.853,7.375-0.584
	c2.587,0.259,5.304,1.022,7.739,2.343c2.441,1.309,4.633,3.166,5.957,5.641c1.342,2.497,1.844,5.625,1.441,8.495
	c-0.396,2.872-1.715,5.474-3.535,8.019c-1.816,2.536-4.158,4.986-7.174,7.706c-3.01,2.712-6.698,5.711-10.407,8.554
	c-3.709,2.853-7.42,5.567-11.275,8.871c-3.886,3.308-7.919,7.222-11.306,10.971c-3.386,3.744-6.099,7.311-7.669,10.594
	c-1.565,3.281-1.967,6.284-1.618,8.581c0.327,2.302,1.396,3.923,3.188,5.233c1.818,1.314,4.382,2.295,7.095,2.295
	c2.716,0,5.605-0.958,7.448-2.647c1.842-1.706,2.615-4.137,3.186-6.677c0.551-2.541,0.897-5.21,0.869-8.647
	c0-3.437-0.37-7.619,0.151-11.076c0.499-3.464,1.867-6.215,4.128-8.342c2.266-2.125,5.453-3.635,8.494-4.485
	c3.037-0.879,5.899-1.098,8.614-0.787c2.715,0.325,5.254,1.182,7.469,2.945c2.217,1.782,4.086,4.43,4.732,7.49
	c0.65,3.047,0.102,6.483-1.592,9.041c-1.697,2.546-4.557,4.211-7.795,4.428c-3.238,0.194-6.824-1.051-8.917-3.133
	c-2.064-2.08-2.611-4.972-1.744-7.097c0.875-2.119,3.189-3.476,5.083-4.05c1.889-0.562,3.365-0.396,4.381-0.062
	c1.025,0.331,1.621,0.791,1.996,0.699c0.371-0.084,0.523-0.745,0-1.726c-0.525-0.986-1.693-2.276-3.758-3.071
	c-2.045-0.787-4.987-1.071-7.823-0.325c-2.836,0.768-5.604,2.584-7.295,4.965c-1.668,2.39-2.264,5.344-1.592,8.126
	c0.693,2.782,2.662,5.41,5.576,7.772c2.91,2.344,6.748,4.423,10.108,6.086c3.363,1.663,6.199,2.958,8.539,4.923
	c2.316,1.972,4.135,4.667,5.184,7.295c1.047,2.628,1.316,5.231,0.896,7.814c-0.449,2.605-1.594,5.213-3.092,7.312
	c-1.492,2.124-3.312,3.746-5.551,5.233c-2.24,1.486-4.855,2.872-7.621,4.29c-2.763,1.423-5.675,2.911-8.013,4.906
	c-2.344,1.99-4.162,4.486-4.887,7.355c-0.719,2.867-0.371,6.11,1.045,8.738c1.422,2.625,3.938,4.592,6.725,5.668
	c2.789,1.076,5.903,1.225,8.095,0.59c2.215-0.637,3.533-2.035,4.207-3.173c0.672-1.14,0.723-1.971,0.574-2.455
	c-0.148-0.455-0.498-0.544-1.021-0.28c-0.523,0.262-1.195,0.854-2.889,0.962c-1.668,0.108-4.359-0.283-6.101-2.276
	c-1.744-1.993-2.518-5.603-1.369-8.19c1.172-2.583,4.282-4.115,7.347-4.511c3.062-0.391,6.074,0.353,8.344,2.059
	c2.262,1.708,3.781,4.381,4.18,7.444c0.398,3.067-0.299,6.547-2.115,9.372c-1.82,2.823-4.736,5.011-8.592,5.779
	c-3.861,0.766-8.64,0.11-12.474-1.333c-3.84-1.446-6.752-3.656-8.695-6.526c-1.938-2.867-2.934-6.348-3.156-8.979
	c-0.225-2.627,0.3-4.354,0.471-6.98c0.174-2.632,0-6.134-0.645-9.239c-0.648-3.089-1.766-5.759-3.606-7.511
	c-1.843-1.75-4.412-2.603-6.875-2.82c-2.438-0.221-4.783,0.172-6.697,1.376c-1.943,1.206-3.464,3.196-4.011,5.715
	c-0.549,2.514-0.099,5.559,1.395,8.842c1.494,3.286,4.034,6.787,7.395,10.597c3.362,3.788,7.547,7.862,12.997,12.459
	c5.45,4.596,12.202,9.72,17.354,13.99c5.154,4.269,8.74,7.685,11.332,11.204c2.586,3.53,4.184,7.121,4.855,10.709
	c0.67,3.569,0.396,7.115-0.973,10.16c-1.367,3.042-3.859,5.627-6.672,7.199c-2.814,1.599-5.979,2.211-9.339,2.345
	c-3.363,0.129-6.902-0.221-10.113-1.27c-3.234-1.075-6.146-2.845-8.957-4.096c-2.813-1.249-5.501-1.971-8.09-2.211
	c-2.592-0.241-5.029,0-7.072,0.767c-2.044,0.767-3.639,2.078-4.609,3.263c-0.97,1.16-1.318,2.19-1.495,3.042
	c-0.174,0.854-0.174,1.531-0.174,2.213"/>
<path fill="#E8DDD4" d="M329.126,198.132c0,0.701,0,1.399-0.071,2.582c-0.075,1.204-0.204,2.891-1.443,4.947
	c-1.246,2.038-3.586,4.445-6.333,6.133c-2.736,1.706-5.87,2.691-9.007,4.071c-3.144,1.381-6.253,3.11-8.394,5.184
	c-2.144,2.083-3.336,4.511-3.761,7.295c-0.422,2.781-0.102,5.886,1.068,8.205c1.17,2.348,3.189,3.901,5.428,4.863
	c2.244,0.96,4.709,1.336,6.798,1.143c2.12-0.201,3.859-0.942,5.084-1.95c1.219-0.987,1.892-2.233,2.119-3.044
	c0.222-0.81-0.027-1.203-0.45-1.163c-0.423,0.045-1.048,0.507-2.34,0.812c-1.296,0.306-3.243,0.436-4.985-0.22
	c-1.742-0.657-3.285-2.1-3.929-4.181c-0.652-2.08-0.451-4.775,0.992-6.785c1.446-2.016,4.11-3.327,7.073-3.528
	c2.986-0.197,6.3,0.744,8.541,2.783c2.241,2.056,3.414,5.229,3.438,8.583c0.024,3.349-1.099,6.875-3.64,9.325
	c-2.51,2.453-6.444,3.872-10.406,4.093c-3.936,0.22-7.896-0.767-10.908-2.319c-3.014-1.553-5.08-3.677-6.67-6.217
	c-1.598-2.541-2.716-5.499-2.968-8.449c-0.251-2.958,0.398-5.914,0.422-9.13c0.029-3.218-0.572-6.723-1.913-9.394
	c-1.345-2.669-3.462-4.529-6.154-5.297c-2.689-0.764-5.926-0.461-8.317,1.182c-2.388,1.644-3.907,4.621-4.183,7.881
	c-0.302,3.263,0.623,6.81,2.716,10.312c2.091,3.505,5.379,6.962,10.036,10.947c4.682,3.984,10.753,8.518,15.888,12.458
	c5.13,3.939,9.313,7.334,13.347,11.755c4.033,4.423,7.943,9.899,10.007,14.886c2.044,4.994,2.243,9.546,1.4,13.072
	c-0.872,3.524-2.792,6.044-5.483,7.928c-2.691,1.88-6.147,3.126-9.559,3.61c-3.416,0.479-6.798,0.15-9.562-0.679
	c-2.762-0.835-4.936-2.211-7.598-3.656c-2.691-1.448-5.879-2.955-9.388-3.634c-3.51-0.701-7.296-0.569-10.109,0.766
	c-2.813,1.333-4.632,3.918-5.131,6.63c-0.494,2.718,0.299,5.605,1.892,7.774c1.597,2.188,3.961,3.681,7.148,4.161
	c3.161,0.48,7.148-0.044,10.606-1.313c3.442-1.269,6.376-3.306,9.113-4.688c2.743-1.375,5.285-2.121,7.923-2.363
	c2.639-0.238,5.404,0,8.09,0.568c2.715,0.552,5.407,1.404,7.896,3.549c2.489,2.146,4.805,5.602,5.35,9.573
	c0.552,3.959-0.645,8.445-2.286,12.212c-1.618,3.764-3.66,6.812-6.65,10.159c-2.988,3.348-6.896,7.003-10.71,10.158
	c-3.812,3.172-7.54,5.843-11.701,8.78c-4.135,2.931-8.69,6.129-12.225,9.325c-3.54,3.194-6.102,6.396-7.25,9.781
	c-1.17,3.38-0.944,6.943,0.723,9.508c1.671,2.584,4.759,4.177,8.096,4.401c3.36,0.219,6.946-0.946,9.333-3.312
	c2.394-2.358,3.542-5.926,3.915-8.824c0.346-2.861-0.105-5.053-0.249-7.575c-0.151-2.511,0.021-5.343,1.069-8.009
	c1.021-2.669,2.914-5.188,5.427-6.986c2.517-1.792,5.63-2.91,9.037-2.862c3.44,0.016,7.174,1.171,9.914,3.195
	c2.765,1.994,4.53,4.833,4.685,7.703c0.144,2.869-1.323,5.805-3.438,7.837c-2.116,2.035-4.881,3.217-7.645,3.503
	c-2.763,0.264-5.53-0.368-7.321-1.795c-1.795-1.422-2.612-3.657-2.49-5.579c0.096-1.953,1.146-3.594,2.767-4.469
	c1.612-0.853,3.833-0.92,5.573-0.547c1.721,0.366,2.968,1.184,3.589,1.97c0.646,0.783,0.669,1.554,0.845,1.933
	c0.176,0.343,0.474,0.304,0.922-0.094c0.426-0.366,0.969-1.07,1.271-2.102c0.304-1.026,0.348-2.411-0.524-3.677
	c-0.848-1.269-2.613-2.428-4.705-3.107c-2.093-0.703-4.508-0.923-6.646-0.46c-2.145,0.46-4.012,1.613-5.456,3.236
	c-1.443,1.623-2.489,3.684-2.865,5.893c-0.375,2.211-0.124,4.572,0.875,6.503c0.997,1.927,2.736,3.438,4.929,4.921
	c2.194,1.489,4.854,2.978,6.697,5.173c1.843,2.186,2.889,5.077,2.414,7.37c-0.471,2.302-2.438,3.971-4.756,4.799
	c-2.311,0.836-4.928,0.814-6.92,0.482c-1.969-0.331-3.285-0.959-4.234-1.641c-0.947-0.678-1.521-1.404-2.114-1.645
	c-0.601-0.26-1.249-0.061-2.693,0.507c-1.467,0.569-3.734,1.55-6.098,2.148c-2.37,0.607-4.81,0.849-7.372,0.581
	c-2.591-0.257-5.306-1.021-7.742-2.341c-2.44-1.312-4.632-3.165-5.955-5.643c-1.344-2.496-1.842-5.626-1.443-8.494
	c0.401-2.87,1.716-5.475,3.536-8.02c1.816-2.538,4.157-4.986,7.174-7.707c3.012-2.712,6.698-5.709,10.406-8.553
	c3.709-2.853,7.42-5.563,11.28-8.87c3.889-3.311,7.918-7.223,11.31-10.971c3.383-3.745,6.097-7.312,7.666-10.595
	c1.567-3.283,1.968-6.283,1.618-8.578c-0.323-2.304-1.393-3.923-3.188-5.234c-1.818-1.318-4.382-2.299-7.095-2.299
	c-2.715,0-5.605,0.961-7.448,2.651c-1.842,1.705-2.616,4.132-3.189,6.674c-0.546,2.541-0.893,5.211-0.868,8.648
	c0,3.438,0.374,7.618-0.147,11.076c-0.504,3.462-1.874,6.215-4.136,8.346c-2.266,2.121-5.452,3.631-8.493,4.484
	c-3.034,0.878-5.898,1.095-8.614,0.783c-2.713-0.324-5.256-1.184-7.47-2.942c-2.216-1.783-4.086-4.433-4.732-7.494
	c-0.649-3.045-0.101-6.482,1.592-9.042c1.698-2.542,4.558-4.208,7.796-4.425c3.237-0.195,6.822,1.052,8.919,3.132
	c2.065,2.078,2.608,4.972,1.741,7.096c-0.875,2.12-3.189,3.476-5.083,4.051c-1.889,0.563-3.364,0.398-4.38,0.062
	c-1.025-0.325-1.62-0.789-1.996-0.697c-0.371,0.083-0.523,0.743,0,1.725c0.525,0.987,1.695,2.278,3.758,3.071
	c2.045,0.786,4.986,1.069,7.825,0.326c2.833-0.769,5.602-2.584,7.296-4.969c1.664-2.387,2.265-5.342,1.593-8.122
	c-0.698-2.783-2.664-5.413-5.581-7.775c-2.91-2.343-6.747-4.422-10.105-6.084c-3.363-1.662-6.205-2.959-8.541-4.923
	c-2.316-1.972-4.135-4.671-5.184-7.295c-1.047-2.629-1.318-5.233-0.896-7.815c0.452-2.606,1.594-5.212,3.092-7.311
	c1.49-2.126,3.312-3.748,5.549-5.232c2.243-1.49,4.859-2.875,7.626-4.29c2.763-1.427,5.676-2.911,8.01-4.908
	c2.344-1.99,4.162-4.485,4.886-7.354c0.72-2.872,0.372-6.111-1.042-8.736c-1.424-2.625-3.939-4.596-6.726-5.673
	c-2.787-1.071-5.903-1.222-8.097-0.589c-2.215,0.638-3.533,2.035-4.207,3.172c-0.675,1.142-0.723,1.975-0.571,2.457
	c0.145,0.456,0.496,0.545,1.015,0.282c0.529-0.263,1.202-0.854,2.891-0.964c1.67-0.106,4.36,0.284,6.104,2.279
	c1.743,1.989,2.518,5.601,1.371,8.187c-1.17,2.583-4.285,4.118-7.349,4.512c-3.062,0.39-6.075-0.352-8.345-2.059
	c-2.261-1.709-3.779-4.382-4.18-7.444c-0.397-3.065,0.297-6.548,2.116-9.371c1.82-2.823,4.735-5.011,8.594-5.779
	c3.858-0.765,8.642-0.109,12.471,1.334c3.84,1.445,6.754,3.655,8.695,6.524c1.943,2.868,2.938,6.35,3.161,8.976
	c0.226,2.629-0.301,4.357-0.472,6.985c-0.176,2.628,0,6.134,0.646,9.237c0.649,3.088,1.768,5.758,3.61,7.507
	c1.841,1.754,4.41,2.607,6.873,2.824c2.438,0.222,4.782-0.17,6.697-1.374c1.946-1.208,3.462-3.199,4.012-5.718
	c0.548-2.513,0.1-5.558-1.396-8.843c-1.494-3.283-4.03-6.786-7.395-10.599c-3.365-3.784-7.548-7.859-13-12.453
	c-5.453-4.598-12.202-9.721-17.355-13.992c-5.152-4.27-8.744-7.684-11.334-11.206c-2.586-3.532-4.184-7.12-4.855-10.71
	c-0.668-3.569-0.399-7.113,0.973-10.157c1.368-3.045,3.86-5.627,6.676-7.203c2.812-1.598,5.975-2.21,9.335-2.344
	c3.363-0.128,6.902,0.221,10.112,1.272c3.24,1.071,6.15,2.843,8.964,4.091c2.814,1.251,5.505,1.972,8.093,2.215
	c2.59,0.242,5.031,0,7.071-0.766c2.046-0.771,3.637-2.081,4.609-3.264c0.973-1.16,1.32-2.188,1.494-3.044
	c0.174-0.854,0.174-1.53,0.174-2.212"/>
<path fill="#E8DDD4" d="M329.126,198.718c0-0.702,0-1.401-0.072-2.582c-0.075-1.204-0.201-2.892-1.444-4.95
	c-1.247-2.036-3.586-4.443-6.331-6.127c-2.737-1.711-5.872-2.693-9.007-4.076c-3.142-1.378-6.253-3.105-8.395-5.182
	c-2.143-2.084-3.336-4.515-3.763-7.295c-0.423-2.783-0.099-5.887,1.071-8.209c1.17-2.345,3.189-3.896,5.428-4.858
	c2.244-0.961,4.709-1.335,6.798-1.141c2.116,0.2,3.859,0.941,5.082,1.949c1.221,0.986,1.893,2.232,2.119,3.043
	c0.224,0.809-0.025,1.203-0.452,1.163c-0.419-0.047-1.044-0.507-2.336-0.813c-1.3-0.307-3.243-0.437-4.985,0.22
	c-1.744,0.656-3.285,2.101-3.933,4.182c-0.648,2.08-0.448,4.773,0.996,6.784c1.445,2.02,4.111,3.33,7.072,3.527
	c2.987,0.197,6.3-0.742,8.542-2.783c2.24-2.054,3.411-5.229,3.436-8.581c0.026-3.35-1.096-6.872-3.637-9.322
	c-2.515-2.454-6.447-3.877-10.408-4.098c-3.934-0.218-7.895,0.77-10.908,2.322c-3.012,1.553-5.078,3.678-6.671,6.217
	c-1.599,2.542-2.713,5.499-2.968,8.451c-0.248,2.958,0.4,5.912,0.425,9.128c0.029,3.218-0.572,6.722-1.913,9.394
	c-1.348,2.67-3.463,4.531-6.154,5.298c-2.69,0.764-5.926,0.461-8.317-1.182c-2.388-1.645-3.91-4.62-4.187-7.883
	c-0.298-3.26,0.627-6.81,2.72-10.313c2.091-3.502,5.376-6.959,10.036-10.946c4.682-3.981,10.757-8.515,15.888-12.456
	c5.126-3.939,9.31-7.334,13.347-11.754c4.033-4.424,7.943-9.898,10.007-14.887c2.043-4.994,2.24-9.546,1.398-13.074
	c-0.874-3.523-2.792-6.04-5.482-7.923c-2.69-1.885-6.146-3.128-9.56-3.615c-3.413-0.481-6.796-0.151-9.561,0.679
	c-2.766,0.835-4.936,2.212-7.598,3.656c-2.691,1.447-5.879,2.955-9.388,3.634c-3.51,0.701-7.296,0.57-10.109-0.765
	s-4.633-3.92-5.131-6.631c-0.496-2.719,0.299-5.607,1.892-7.774c1.595-2.189,3.959-3.68,7.148-4.16
	c3.164-0.484,7.148,0.042,10.606,1.312c3.438,1.266,6.376,3.304,9.113,4.688c2.743,1.373,5.282,2.121,7.922,2.363
	c2.64,0.241,5.405,0,8.091-0.568c2.711-0.549,5.405-1.405,7.896-3.546c2.49-2.148,4.805-5.605,5.354-9.574
	c0.549-3.961-0.649-8.447-2.293-12.212c-1.614-3.767-3.659-6.813-6.646-10.162c-2.989-3.347-6.896-7.003-10.709-10.158
	c-3.81-3.169-7.542-5.844-11.702-8.779c-4.135-2.931-8.692-6.131-12.226-9.324c-3.539-3.196-6.104-6.396-7.251-9.783
	c-1.17-3.379-0.942-6.943,0.725-9.507c1.669-2.585,4.759-4.176,8.096-4.399c3.36-0.222,6.946,0.943,9.333,3.313
	c2.394,2.355,3.542,5.924,3.913,8.821c0.348,2.86-0.104,5.049-0.251,7.574c-0.147,2.511,0.025,5.341,1.073,8.009
	c1.021,2.668,2.91,5.188,5.428,6.987c2.516,1.791,5.629,2.91,9.038,2.861c3.438-0.017,7.172-1.17,9.912-3.197
	c2.765-1.99,4.53-4.831,4.685-7.7c0.144-2.87-1.323-5.806-3.438-7.839c-2.12-2.035-4.881-3.216-7.646-3.502
	c-2.766-0.263-5.529,0.371-7.324,1.796c-1.79,1.423-2.612,3.656-2.486,5.577c0.098,1.954,1.146,3.595,2.763,4.469
	c1.616,0.854,3.836,0.923,5.577,0.548c1.717-0.368,2.963-1.184,3.587-1.971c0.648-0.786,0.673-1.553,0.847-1.93
	c0.178-0.343,0.472-0.303,0.922,0.091c0.426,0.37,0.969,1.073,1.268,2.104c0.304,1.026,0.351,2.409-0.521,3.677
	c-0.848,1.268-2.617,2.425-4.705,3.107c-2.093,0.701-4.508,0.92-6.649,0.46c-2.142-0.46-4.009-1.615-5.455-3.237
	c-1.441-1.625-2.49-3.684-2.863-5.891c-0.375-2.213-0.125-4.574,0.871-6.505c1-1.925,2.737-3.44,4.933-4.923
	c2.19-1.488,4.854-2.976,6.697-5.171c1.841-2.185,2.889-5.076,2.414-7.371c-0.473-2.301-2.438-3.968-4.756-4.798
	c-2.313-0.833-4.928-0.813-6.922-0.482c-1.967,0.333-3.284,0.961-4.232,1.64c-0.947,0.677-1.521,1.406-2.114,1.646
	c-0.602,0.26-1.249,0.061-2.693-0.508c-1.467-0.57-3.734-1.55-6.098-2.146c-2.37-0.61-4.81-0.853-7.374-0.584
	c-2.588,0.259-5.304,1.022-7.74,2.343c-2.441,1.309-4.632,3.166-5.956,5.641c-1.343,2.497-1.845,5.625-1.442,8.495
	c0.397,2.872,1.715,5.474,3.536,8.019c1.816,2.536,4.157,4.986,7.174,7.706c3.009,2.712,6.698,5.711,10.406,8.554
	c3.709,2.853,7.42,5.567,11.28,8.871c3.888,3.308,7.92,7.222,11.307,10.971c3.386,3.744,6.1,7.311,7.669,10.594
	c1.566,3.281,1.968,6.284,1.618,8.581c-0.326,2.302-1.396,3.923-3.188,5.233c-1.818,1.314-4.382,2.295-7.095,2.295
	c-2.716,0-5.605-0.958-7.448-2.647c-1.842-1.706-2.616-4.137-3.187-6.677c-0.553-2.541-0.899-5.21-0.871-8.647
	c0-3.437,0.371-7.619-0.152-11.076c-0.499-3.464-1.869-6.215-4.131-8.342c-2.265-2.125-5.452-3.635-8.493-4.485
	c-3.037-0.879-5.9-1.098-8.615-0.787c-2.714,0.325-5.255,1.182-7.469,2.945c-2.217,1.782-4.086,4.43-4.732,7.49
	c-0.649,3.047-0.101,6.483,1.592,9.041c1.696,2.546,4.558,4.211,7.796,4.428c3.237,0.194,6.822-1.051,8.916-3.133
	c2.064-2.08,2.611-4.972,1.743-7.097c-0.874-2.119-3.188-3.476-5.082-4.05c-1.889-0.562-3.364-0.396-4.381-0.062
	c-1.024,0.331-1.621,0.791-1.995,0.699c-0.371-0.084-0.523-0.745,0-1.726c0.525-0.986,1.692-2.276,3.758-3.071
	c2.044-0.787,4.986-1.071,7.823-0.325c2.835,0.768,5.604,2.584,7.294,4.965c1.668,2.39,2.265,5.344,1.593,8.126
	c-0.694,2.782-2.663,5.41-5.577,7.772c-2.91,2.344-6.747,4.423-10.107,6.086c-3.363,1.663-6.2,2.958-8.539,4.923
	c-2.317,1.972-4.136,4.667-5.184,7.295c-1.048,2.628-1.318,5.231-0.896,7.814c0.449,2.605,1.594,5.213,3.092,7.312
	c1.49,2.124,3.312,3.746,5.549,5.233c2.241,1.486,4.856,2.872,7.623,4.29c2.763,1.423,5.675,2.911,8.013,4.906
	c2.344,1.99,4.162,4.486,4.886,7.355c0.72,2.867,0.372,6.11-1.046,8.738c-1.421,2.625-3.936,4.592-6.723,5.668
	c-2.791,1.076-5.904,1.225-8.096,0.59c-2.215-0.637-3.534-2.035-4.207-3.173c-0.672-1.14-0.723-1.971-0.573-2.455
	c0.146-0.455,0.498-0.544,1.021-0.28c0.523,0.262,1.196,0.854,2.89,0.962c1.667,0.108,4.357-0.283,6.101-2.276
	c1.743-1.993,2.518-5.603,1.368-8.19c-1.171-2.583-4.282-4.115-7.346-4.511c-3.063-0.391-6.075,0.353-8.345,2.059
	c-2.262,1.708-3.781,4.381-4.18,7.444c-0.398,3.067,0.299,6.547,2.116,9.372c1.819,2.823,4.735,5.011,8.592,5.779
	c3.86,0.766,8.64,0.11,12.473-1.333c3.84-1.446,6.752-3.656,8.695-6.526c1.94-2.867,2.938-6.348,3.161-8.979
	c0.225-2.627-0.301-4.354-0.472-6.98c-0.176-2.632,0-6.134,0.646-9.239c0.649-3.089,1.768-5.759,3.608-7.511
	c1.843-1.75,4.411-2.603,6.875-2.82c2.438-0.221,4.782,0.172,6.697,1.376c1.942,1.206,3.464,3.196,4.011,5.715
	c0.549,2.514,0.099,5.559-1.396,8.842c-1.493,3.286-4.033,6.787-7.394,10.597c-3.362,3.788-7.548,7.862-13,12.459
	c-5.454,4.596-12.205,9.72-17.357,13.99c-5.153,4.269-8.74,7.685-11.332,11.204c-2.586,3.53-4.184,7.121-4.855,10.709
	c-0.67,3.569-0.396,7.115,0.973,10.16c1.367,3.042,3.858,5.627,6.673,7.199c2.814,1.599,5.978,2.211,9.338,2.345
	c3.363,0.129,6.902-0.221,10.114-1.27c3.234-1.075,6.147-2.845,8.962-4.096c2.814-1.249,5.502-1.971,8.091-2.211
	c2.592-0.241,5.029,0,7.072,0.767c2.043,0.767,3.638,2.078,4.609,3.263c0.97,1.16,1.318,2.19,1.494,3.042
	c0.175,0.854,0.175,1.531,0.175,2.213"/>
</svg>
