<?xml version="1.0" encoding="utf-8"?>
<!-- Generator: Adobe Illustrator 14.0.0, SVG Export Plug-In  -->
<!DOCTYPE svg PUBLIC "-//W3C//DTD SVG 1.1//EN" "http://www.w3.org/Graphics/SVG/1.1/DTD/svg11.dtd" [
	<!ENTITY ns_flows "http://ns.adobe.com/Flows/1.0/">
]>
<svg version="1.1"
	 xmlns="http://www.w3.org/2000/svg" xmlns:xlink="http://www.w3.org/1999/xlink" xmlns:a="http://ns.adobe.com/AdobeSVGViewerExtensions/3.0/"
	 x="0px" y="0px" width="58px" height="52px" viewBox="-0.851 -1.756 58 52" enable-background="new -0.851 -1.756 58 52"
	 xml:space="preserve">
<defs>
</defs>
<path fill="#512178" d="M52.421,20.969c0.964,0,1.787,0.341,2.47,1.023c0.684,0.682,1.024,1.507,1.024,2.471
	c0,0.966-0.34,1.789-1.024,2.471c-0.683,0.683-1.505,1.024-2.47,1.024h-0.41l-3.14,18.074c-0.146,0.837-0.545,1.529-1.201,2.075
	c-0.655,0.545-1.401,0.818-2.239,0.818H10.484c-0.838,0-1.584-0.273-2.239-0.818c-0.656-0.546-1.057-1.238-1.201-2.075l-3.14-18.074
	H3.495c-0.965,0-1.788-0.342-2.471-1.024C0.342,26.252,0,25.429,0,24.463c0-0.964,0.342-1.789,1.024-2.471
	c0.683-0.683,1.505-1.023,2.471-1.023H52.421z M12.996,7.974l-2.54,11.247H6.854l2.758-12.04c0.345-1.602,1.155-2.907,2.429-3.918
	c1.274-1.01,2.731-1.516,4.369-1.516h4.559c0-0.473,0.172-0.882,0.52-1.228C21.833,0.173,22.242,0,22.716,0h10.483
	c0.474,0,0.883,0.173,1.229,0.52c0.346,0.346,0.52,0.755,0.52,1.228h4.559c1.64,0,3.095,0.506,4.369,1.516
	c1.273,1.011,2.083,2.316,2.431,3.918l2.756,12.04h-3.603l-2.54-11.247c-0.199-0.802-0.613-1.457-1.242-1.967
	c-0.627-0.51-1.351-0.765-2.171-0.765h-4.559c0,0.473-0.174,0.884-0.52,1.229c-0.345,0.346-0.754,0.519-1.229,0.519H22.716
	c-0.474,0-0.883-0.173-1.229-0.519c-0.347-0.345-0.52-0.756-0.52-1.229h-4.559c-0.82,0-1.542,0.255-2.171,0.765
	S13.195,7.172,12.996,7.974z M13.242,42.81c0.473-0.036,0.869-0.241,1.188-0.613c0.318-0.374,0.459-0.796,0.422-1.271l-0.873-11.356
	c-0.037-0.475-0.241-0.87-0.614-1.188c-0.374-0.318-0.796-0.459-1.269-0.423c-0.475,0.037-0.87,0.242-1.188,0.614
	c-0.318,0.373-0.459,0.796-0.423,1.269l0.874,11.358c0.035,0.456,0.223,0.838,0.56,1.146c0.335,0.311,0.732,0.464,1.187,0.464
	H13.242z M24.463,41.063V29.705c0-0.473-0.173-0.882-0.518-1.229c-0.347-0.346-0.756-0.519-1.229-0.519
	c-0.474,0-0.883,0.173-1.229,0.519c-0.347,0.347-0.52,0.756-0.52,1.229v11.358c0,0.473,0.172,0.882,0.52,1.229
	c0.345,0.346,0.754,0.518,1.229,0.518c0.473,0,0.882-0.172,1.229-0.518C24.29,41.945,24.463,41.536,24.463,41.063z M34.947,41.063
	V29.705c0-0.473-0.174-0.882-0.52-1.229c-0.345-0.346-0.754-0.519-1.229-0.519c-0.473,0-0.882,0.173-1.228,0.519
	c-0.347,0.347-0.52,0.756-0.52,1.229v11.358c0,0.473,0.173,0.882,0.52,1.229c0.346,0.346,0.755,0.518,1.228,0.518
	c0.474,0,0.883-0.172,1.229-0.518C34.773,41.945,34.947,41.536,34.947,41.063z M44.557,41.199l0.874-11.358
	c0.037-0.473-0.104-0.896-0.423-1.269c-0.318-0.372-0.714-0.577-1.187-0.614c-0.475-0.036-0.897,0.104-1.271,0.423
	c-0.373,0.318-0.579,0.714-0.614,1.188l-0.873,11.356c-0.037,0.475,0.104,0.896,0.422,1.271c0.319,0.372,0.715,0.577,1.189,0.613
	h0.136c0.455,0,0.85-0.153,1.187-0.464C44.334,42.037,44.52,41.655,44.557,41.199z"/>
</svg>
