<?xml version="1.0" encoding="utf-8"?>
<!-- Generator: Adobe Illustrator 14.0.0, SVG Export Plug-In  -->
<!DOCTYPE svg PUBLIC "-//W3C//DTD SVG 1.1//EN" "http://www.w3.org/Graphics/SVG/1.1/DTD/svg11.dtd" [
	<!ENTITY ns_flows "http://ns.adobe.com/Flows/1.0/">
]>
<svg version="1.1"
	 xmlns="http://www.w3.org/2000/svg" xmlns:xlink="http://www.w3.org/1999/xlink" xmlns:a="http://ns.adobe.com/AdobeSVGViewerExtensions/3.0/"
	 x="0px" y="0px" width="36px" height="36px" viewBox="-1.393 -0.637 36 36" enable-background="new -1.393 -0.637 36 36"
	 xml:space="preserve">
<defs>
</defs>
<g>
	<path fill="#4B2A79" d="M32.934,18.146c0.055,8.762-5.215,14.975-19.445,16.326C7.742,33.741-0.321,26.813,0.01,17.168
		C3.006,8.734,9.853,1.702,14.869,0C22.523,1.94,31.491,8.508,32.934,18.146z"/>
</g>
<g id="Facebook_1_">
	<g>
		<path fill="#F6F6F6" d="M17.09,15.658c0,0,0-0.809,0-1.804c0-0.996,1.189-0.91,1.189-0.91h2.222V8.56l-4.078-0.03
			c-4.516,0-4.171,5.087-4.171,5.087v2.062H9.95v4.642h2.37v7.174h4.771v-7.211h2.881l0.603-4.626H17.09z"/>
	</g>
</g>
</svg>
