<?xml version="1.0" encoding="utf-8"?>
<!-- Generator: Adobe Illustrator 14.0.0, SVG Export Plug-In  -->
<!DOCTYPE svg PUBLIC "-//W3C//DTD SVG 1.1//EN" "http://www.w3.org/Graphics/SVG/1.1/DTD/svg11.dtd" [
	<!ENTITY ns_flows "http://ns.adobe.com/Flows/1.0/">
]>
<svg version="1.1"
	 xmlns="http://www.w3.org/2000/svg" xmlns:xlink="http://www.w3.org/1999/xlink" xmlns:a="http://ns.adobe.com/AdobeSVGViewerExtensions/3.0/"
	 x="0px" y="0px" width="36px" height="36px" viewBox="-1.417 -1.387 36 36" enable-background="new -1.417 -1.387 36 36"
	 xml:space="preserve">
<defs>
</defs>
<g>
	<path fill="#4B2A79" d="M17.416,0c10.772,0.847,15.658,8.125,14.959,16.956c-2.398,8.689-6.729,16.27-19.012,16.486
		C7.602,33.15-2.451,26.223,0.546,17.373C-2.081,7.27,7.726,0.522,17.416,0z"/>
</g>
<g id="Twitter_1_">
	<g>
		<path fill="#FFFFFF" d="M21.465,21.329h-4.703c0,0-2.492-0.295-2.492-2.279c0-1.98,0-2.354,0-2.354h6.825c0,0,1.908,0,1.908-2.122
			c0-2.135-1.984-2.135-1.984-2.135H14.27V9.802c0,0,0-1.833-2.128-1.833c-2.135,0-2.21,1.833-2.21,1.833v9.619
			c0,0-0.076,6.087,5.946,6.087c4.991,0,5.588-0.072,5.588-0.072s1.538,0.15,1.538-1.909C23.003,21.474,21.465,21.329,21.465,21.329
			z"/>
	</g>
</g>
</svg>
